<svg xmlns="http://www.w3.org/2000/svg" xmlns:xlink="http://www.w3.org/1999/xlink" width="141" height="102" viewBox="0 0 141 102">
    <defs>
        <path id="b" d="M15.831 8.682h60.372a6 6 0 0 1 6 6v72.59c0 3.34-2.702 6.046-6.034 6.046H15.83c-3.332 0-6.034-2.706-6.034-6.045V14.727c0-3.339 2.702-6.045 6.034-6.045z"/>
        <filter id="a" width="101.4%" height="102.4%" x="-.7%" y="-.6%" filterUnits="objectBoundingBox">
            <feOffset dy="1" in="SourceAlpha" result="shadowOffsetOuter1"/>
            <feColorMatrix in="shadowOffsetOuter1" values="0 0 0 0 0.258823529 0 0 0 0 0.760784314 0 0 0 0 0.37254902 0 0 0 0.35 0"/>
        </filter>
        <path id="d" d="M16.034 9h46.334l20.037 20.82v57.77c0 3.34-2.701 6.046-6.034 6.046H16.034C12.7 93.636 10 90.93 10 87.591V15.045C10 11.707 12.701 9 16.034 9z"/>
        <filter id="c" width="210.5%" height="194.5%" x="-55.2%" y="-30.7%" filterUnits="objectBoundingBox">
            <feOffset dy="12" in="SourceAlpha" result="shadowOffsetOuter1"/>
            <feGaussianBlur in="shadowOffsetOuter1" result="shadowBlurOuter1" stdDeviation="10"/>
            <feColorMatrix in="shadowBlurOuter1" result="shadowMatrixOuter1" values="0 0 0 0 0 0 0 0 0 0.48 0 0 0 0 0.9 0 0 0 0.101109601 0"/>
            <feOffset dy="2" in="SourceAlpha" result="shadowOffsetOuter2"/>
            <feGaussianBlur in="shadowOffsetOuter2" result="shadowBlurOuter2" stdDeviation="2"/>
            <feColorMatrix in="shadowBlurOuter2" result="shadowMatrixOuter2" values="0 0 0 0 0 0 0 0 0 0.48 0 0 0 0 0.9 0 0 0 0.152230525 0"/>
            <feMerge>
                <feMergeNode in="shadowMatrixOuter1"/>
                <feMergeNode in="shadowMatrixOuter2"/>
            </feMerge>
        </filter>
    </defs>
    <g fill="none" fill-rule="evenodd">
        <g transform="rotate(15 58.5 145.947)">
            <use fill="#000" filter="url(#a)" xlink:href="#b"/>
            <use fill="#D3E8FA" xlink:href="#b"/>
        </g>
        <g transform="translate(25)">
            <use fill="#000" filter="url(#c)" xlink:href="#d"/>
            <use fill="#E9F5FF" xlink:href="#d"/>
        </g>
        <g fill="#08F">
            <path d="M56.815 78.894h-2.428l-1.514-2.433-1.498 2.433H49l2.577-3.982-2.423-3.8h2.327l1.402 2.406 1.35-2.406h2.396l-2.46 3.965 2.646 3.817zm.87 0v-7.782h2.1v6.084h2.99v1.698h-5.09zm11.412-2.364c0 .483-.122.911-.367 1.286-.244.374-.597.665-1.057.873-.46.207-1 .311-1.62.311-.517 0-.951-.036-1.302-.11-.35-.072-.715-.199-1.094-.38v-1.873c.4.206.816.366 1.248.481.432.116.829.173 1.19.173.312 0 .54-.054.686-.162a.5.5 0 0 0 .217-.418.46.46 0 0 0-.087-.28 1.021 1.021 0 0 0-.282-.241c-.13-.082-.474-.249-1.033-.5-.507-.231-.886-.455-1.14-.671a2.059 2.059 0 0 1-.563-.746 2.478 2.478 0 0 1-.183-.995c0-.717.26-1.276.78-1.677.522-.4 1.237-.601 2.147-.601.804 0 1.624.186 2.46.559l-.643 1.623c-.726-.333-1.353-.5-1.88-.5-.273 0-.472.048-.596.144a.435.435 0 0 0-.186.356c0 .153.08.29.237.41.157.12.585.34 1.283.66.67.302 1.134.626 1.394.972s.39.781.39 1.306zM78.752 72.725c-.5 0-.89.204-1.17.614-.28.41-.421.975-.421 1.696 0 1.497.57 2.246 1.709 2.246a3.5 3.5 0 0 0 1-.144c.323-.096.648-.211.974-.346v1.778c-.65.287-1.384.431-2.203.431-1.175 0-2.075-.34-2.702-1.022-.626-.681-.939-1.666-.939-2.954 0-.806.152-1.513.455-2.124.303-.61.74-1.08 1.31-1.408.569-.328 1.239-.492 2.009-.492.84 0 1.644.183 2.411.548l-.644 1.656a7.241 7.241 0 0 0-.862-.341 3.013 3.013 0 0 0-.927-.138zm8.698 3.805c0 .483-.123.911-.367 1.286-.245.374-.598.665-1.06.873-.461.207-1.002.311-1.623.311-.518 0-.953-.036-1.304-.11a4.841 4.841 0 0 1-1.097-.38v-1.873c.401.206.818.366 1.251.481.433.116.83.173 1.192.173.313 0 .542-.054.687-.162a.5.5 0 0 0 .218-.418.46.46 0 0 0-.088-.28 1.023 1.023 0 0 0-.282-.241c-.13-.082-.474-.249-1.035-.5-.507-.231-.888-.455-1.142-.671a2.059 2.059 0 0 1-.564-.746 2.473 2.473 0 0 1-.183-.995c0-.717.26-1.276.782-1.677.522-.4 1.238-.601 2.15-.601.806 0 1.627.186 2.465.559l-.644 1.623c-.728-.333-1.356-.5-1.885-.5-.273 0-.471.048-.596.144a.435.435 0 0 0-.186.356c0 .153.079.29.237.41.158.12.586.34 1.285.66.671.302 1.137.626 1.398.972.26.346.39.781.39 1.306zm5.573-5.418h2.352l-2.55 7.782h-2.474l-2.54-7.782h2.364l1.06 3.944c.22.876.34 1.487.361 1.83.025-.248.075-.558.15-.93.074-.373.14-.666.196-.879l1.08-3.965zM70.438 78.049L68.921 81h1.517l2.337-2.952z"/>
        </g>
        <path fill="#08F" d="M78.35 47.04A7.49 7.49 0 0 0 71 41c-2.89 0-5.4 1.64-6.65 4.04A5.994 5.994 0 0 0 59 51c0 3.31 2.69 6 6 6h13c2.76 0 5-2.24 5-5 0-2.64-2.05-4.78-4.65-4.96zM73 50v4h-4v-4h-3l5-5 5 5h-3z"/>
    </g>
</svg>
