<svg xmlns="http://www.w3.org/2000/svg" width="48" height="48" viewBox="0 0 48 48">
    <g fill="none" fill-rule="evenodd">
        <path fill="#42C25F" fill-opacity=".1" d="M9 3h23.038L42 13.332V42a3 3 0 0 1-3 3H9a3 3 0 0 1-3-3V6a3 3 0 0 1 3-3z"/>
        <path fill="#11BA5D" d="M15.95 31.34a1.23 1.23 0 0 0-1.074.565c-.257.376-.386.894-.386 1.555 0 1.374.523 2.06 1.568 2.06.315 0 .621-.043.918-.131.296-.088.594-.194.893-.318v1.631c-.596.264-1.27.396-2.021.396-1.078 0-1.904-.313-2.478-.938-.575-.625-.862-1.528-.862-2.71 0-.739.139-1.388.417-1.948.279-.56.679-.99 1.201-1.292.523-.3 1.137-.451 1.844-.451.771 0 1.509.167 2.212.503l-.591 1.518a6.643 6.643 0 0 0-.791-.312 2.764 2.764 0 0 0-.85-.127zm7.979 3.492c0 .443-.113.836-.337 1.18-.225.343-.549.61-.972.8-.423.19-.92.286-1.49.286-.474 0-.873-.034-1.195-.1a4.441 4.441 0 0 1-1.006-.35V34.93c.368.188.75.336 1.147.442.397.105.762.158 1.094.158.286 0 .496-.05.63-.149.133-.099.2-.227.2-.383a.422.422 0 0 0-.08-.256.938.938 0 0 0-.26-.222c-.118-.075-.435-.228-.95-.46-.465-.211-.814-.416-1.046-.615a1.889 1.889 0 0 1-.518-.683 2.269 2.269 0 0 1-.168-.913c0-.658.239-1.17.717-1.538.479-.368 1.136-.552 1.973-.552.739 0 1.492.17 2.26.512l-.59 1.49c-.667-.306-1.244-.46-1.729-.46-.25 0-.433.045-.547.133a.399.399 0 0 0-.17.327c0 .14.072.265.217.376.145.11.538.312 1.18.605.614.277 1.042.574 1.28.891.24.318.36.717.36 1.199zm5.112-4.97h2.158L28.86 37h-2.27l-2.33-7.139h2.169l.971 3.618c.202.805.313 1.364.332 1.68a9.15 9.15 0 0 1 .137-.854c.069-.342.129-.61.18-.806l.992-3.638z"/>
    </g>
</svg>
