<?xml version="1.0" encoding="utf-8"?>
<!-- Generator: Adobe Illustrator 22.0.0, SVG Export Plug-In . SVG Version: 6.00 Build 0)  -->
<svg version="1.1" id="Layer_1" xmlns="http://www.w3.org/2000/svg" xmlns:xlink="http://www.w3.org/1999/xlink" x="0px" y="0px"
	 viewBox="0 0 500 336" style="enable-background:new 0 0 500 336;" xml:space="preserve">
<style type="text/css">
	.st0{fill:url(#path-2-2_1_);}
	.st1{fill:#F05A29;}
	.st2{fill:#FEB751;}
	.st3{fill:#8A5E3C;}
	.st4{fill:#754C29;}
	.st5{opacity:0.5;fill:#8A5E3C;enable-background:new    ;}
	.st6{opacity:0.13;fill:#FFFFFF;enable-background:new    ;}
	.st7{opacity:0.16;fill:#FFFFFF;enable-background:new    ;}
	.st8{opacity:9.000000e-02;fill:#FFFFFF;enable-background:new    ;}
	.st9{opacity:0.59;}
	.st10{opacity:0.44;fill:url(#Fill-1_1_);enable-background:new    ;}
	.st11{fill:#00BBF9;}
	.st12{opacity:0.44;fill:url(#Fill-1-2_1_);enable-background:new    ;}
	.st13{clip-path:url(#SVGID_2_);}
	.st14{fill:#0092A1;}
	.st15{fill:#F8D95C;}
	.st16{opacity:0.5;fill:#0092A1;enable-background:new    ;}
	.st17{clip-path:url(#SVGID_4_);}
	.st18{fill:#FFD685;}
	.st19{fill:#F6931E;}
	.st20{fill:#FAAF40;}
	.st21{filter:url(#Adobe_OpacityMaskFilter);}
	.st22{fill:#FFFFFF;}
	.st23{mask:url(#mask-3_2_);}
	.st24{fill:url(#path-12_10_);}
	.st25{filter:url(#Adobe_OpacityMaskFilter_1_);}
	.st26{opacity:0.7874;mask:url(#mask-13_1_);}
	.st27{fill:url(#path-15_2_);}
	.st28{filter:url(#filter-16);}
	.st29{filter:url(#Adobe_OpacityMaskFilter_2_);}
	.st30{opacity:0.6808;mask:url(#mask-13_2_);}
	.st31{fill:url(#path-17_2_);}
	.st32{filter:url(#filter-18);}
	.st33{filter:url(#Adobe_OpacityMaskFilter_3_);}
	.st34{opacity:0.8189;mask:url(#mask-13_3_);}
	.st35{fill:url(#path-19_2_);}
	.st36{filter:url(#filter-20);}
	.st37{filter:url(#Adobe_OpacityMaskFilter_4_);}
	.st38{opacity:0.7874;mask:url(#mask-13_4_);}
	.st39{fill:url(#path-21_2_);}
	.st40{filter:url(#filter-22);}
	.st41{filter:url(#Adobe_OpacityMaskFilter_5_);}
	.st42{opacity:0.7874;mask:url(#mask-13_5_);}
	.st43{fill:url(#path-23_2_);}
	.st44{filter:url(#filter-24);}
	.st45{filter:url(#Adobe_OpacityMaskFilter_6_);}
	.st46{opacity:0.7874;mask:url(#mask-13_6_);}
	.st47{fill:url(#path-25_2_);}
	.st48{filter:url(#filter-26);}
	.st49{filter:url(#Adobe_OpacityMaskFilter_7_);}
	.st50{opacity:0.6808;mask:url(#mask-13_7_);}
	.st51{fill:url(#path-27_2_);}
	.st52{filter:url(#filter-28);}
	.st53{filter:url(#Adobe_OpacityMaskFilter_8_);}
	.st54{opacity:0.7382;mask:url(#mask-13_8_);}
	.st55{fill:url(#path-29_2_);}
	.st56{filter:url(#filter-30);}
	.st57{fill:#F7C500;}
	.st58{fill:#DDA800;}
	.st59{fill:#97CCEF;}
	.st60{fill:#E54E2C;}
	.st61{opacity:0.5;fill:#E54E2C;enable-background:new    ;}
	.st62{fill:#E5E6E7;}
	.st63{opacity:0.5;fill:#97CCEF;enable-background:new    ;}
	.st64{fill:#053849;}
	.st65{fill:#8CAEDC;}
	.st66{fill:#F47A27;}
	.st67{fill:#FEFFFF;}
	.st68{opacity:0.5;fill:#FFFFFF;enable-background:new    ;}
	.st69{fill:#E24530;}
	.st70{opacity:0.5;fill:#E5E6E7;enable-background:new    ;}
	.st71{fill:#D7ECF9;}
	.st72{fill:#F05238;}
	.st73{opacity:0.5;fill:#053849;enable-background:new    ;}
	.st74{fill:#FC7765;}
	.st75{opacity:0.5;fill:#FC7765;enable-background:new    ;}
</style>
<filter  filterUnits="objectBoundingBox" height="124.3%" id="filter-30" width="105.4%" x="-2.7%" y="-12.2%">
	<feOffset  dx="0" dy="4" in="SourceAlpha" result="shadowOffsetInner1"></feOffset>
	<feComposite  in="shadowOffsetInner1" in2="SourceAlpha" k2="-1" k3="1" operator="arithmetic" result="shadowInnerInner1">
		</feComposite>
	
		<feColorMatrix  in="shadowInnerInner1" type="matrix" values="0 0 0 0 0.168627451   0 0 0 0 0.243137255   0 0 0 0 0.317647059  0 0 0 0.401919158 0">
		</feColorMatrix>
</filter>
<filter  filterUnits="objectBoundingBox" height="135.6%" id="filter-28" width="111.0%" x="-5.5%" y="-17.8%">
	<feOffset  dx="0" dy="4" in="SourceAlpha" result="shadowOffsetInner1"></feOffset>
	<feComposite  in="shadowOffsetInner1" in2="SourceAlpha" k2="-1" k3="1" operator="arithmetic" result="shadowInnerInner1">
		</feComposite>
	
		<feColorMatrix  in="shadowInnerInner1" type="matrix" values="0 0 0 0 0.168627451   0 0 0 0 0.243137255   0 0 0 0 0.317647059  0 0 0 0.401919158 0">
		</feColorMatrix>
</filter>
<filter  filterUnits="objectBoundingBox" height="147.9%" id="filter-26" width="108.0%" x="-4.0%" y="-23.9%">
	<feOffset  dx="0" dy="4" in="SourceAlpha" result="shadowOffsetInner1"></feOffset>
	<feComposite  in="shadowOffsetInner1" in2="SourceAlpha" k2="-1" k3="1" operator="arithmetic" result="shadowInnerInner1">
		</feComposite>
	
		<feColorMatrix  in="shadowInnerInner1" type="matrix" values="0 0 0 0 0.168627451   0 0 0 0 0.243137255   0 0 0 0 0.317647059  0 0 0 0.401919158 0">
		</feColorMatrix>
</filter>
<filter  filterUnits="objectBoundingBox" height="147.7%" id="filter-24" width="108.0%" x="-4.0%" y="-23.9%">
	<feOffset  dx="0" dy="4" in="SourceAlpha" result="shadowOffsetInner1"></feOffset>
	<feComposite  in="shadowOffsetInner1" in2="SourceAlpha" k2="-1" k3="1" operator="arithmetic" result="shadowInnerInner1">
		</feComposite>
	
		<feColorMatrix  in="shadowInnerInner1" type="matrix" values="0 0 0 0 0.168627451   0 0 0 0 0.243137255   0 0 0 0 0.317647059  0 0 0 0.401919158 0">
		</feColorMatrix>
</filter>
<filter  filterUnits="objectBoundingBox" height="129.0%" id="filter-22" width="108.2%" x="-4.1%" y="-14.5%">
	<feOffset  dx="0" dy="4" in="SourceAlpha" result="shadowOffsetInner1"></feOffset>
	<feComposite  in="shadowOffsetInner1" in2="SourceAlpha" k2="-1" k3="1" operator="arithmetic" result="shadowInnerInner1">
		</feComposite>
	
		<feColorMatrix  in="shadowInnerInner1" type="matrix" values="0 0 0 0 0.168627451   0 0 0 0 0.243137255   0 0 0 0 0.317647059  0 0 0 0.401919158 0">
		</feColorMatrix>
</filter>
<filter  filterUnits="objectBoundingBox" height="129.3%" id="filter-20" width="106.7%" x="-3.4%" y="-14.7%">
	<feOffset  dx="0" dy="4" in="SourceAlpha" result="shadowOffsetInner1"></feOffset>
	<feComposite  in="shadowOffsetInner1" in2="SourceAlpha" k2="-1" k3="1" operator="arithmetic" result="shadowInnerInner1">
		</feComposite>
	
		<feColorMatrix  in="shadowInnerInner1" type="matrix" values="0 0 0 0 0.168627451   0 0 0 0 0.243137255   0 0 0 0 0.317647059  0 0 0 0.401919158 0">
		</feColorMatrix>
</filter>
<filter  filterUnits="objectBoundingBox" height="135.5%" id="filter-18" width="111.6%" x="-5.8%" y="-17.7%">
	<feOffset  dx="0" dy="4" in="SourceAlpha" result="shadowOffsetInner1"></feOffset>
	<feComposite  in="shadowOffsetInner1" in2="SourceAlpha" k2="-1" k3="1" operator="arithmetic" result="shadowInnerInner1">
		</feComposite>
	
		<feColorMatrix  in="shadowInnerInner1" type="matrix" values="0 0 0 0 0.168627451   0 0 0 0 0.243137255   0 0 0 0 0.317647059  0 0 0 0.401919158 0">
		</feColorMatrix>
</filter>
<filter  filterUnits="objectBoundingBox" height="125.0%" id="filter-16" width="108.2%" x="-4.1%" y="-12.5%">
	<feOffset  dx="0" dy="4" in="SourceAlpha" result="shadowOffsetInner1"></feOffset>
	<feComposite  in="shadowOffsetInner1" in2="SourceAlpha" k2="-1" k3="1" operator="arithmetic" result="shadowInnerInner1">
		</feComposite>
	
		<feColorMatrix  in="shadowInnerInner1" type="matrix" values="0 0 0 0 0.168627451   0 0 0 0 0.243137255   0 0 0 0 0.317647059  0 0 0 0.401919158 0">
		</feColorMatrix>
</filter>
<g id="Rectangle-6">
	
		<linearGradient id="path-2-2_1_" gradientUnits="userSpaceOnUse" x1="-114.1" y1="622.8" x2="385.9" y2="622.8" gradientTransform="matrix(1 0 0 1 114 -454.9)">
		<stop  offset="0" style="stop-color:#6E5196"/>
		<stop  offset="1" style="stop-color:#FF0000"/>
	</linearGradient>
	<polygon id="path-2-2" class="st0" points="-0.1,-0.1 499.9,-0.1 499.9,335.9 -0.1,335.9 	"/>
</g>
<g>
	<path class="st1" d="M79.5,200.3c0.6,0.7,0.5,1.7-0.2,2.3c-0.6,0.5-1.5,0.5-2.1,0c-0.6-0.6-4.7-7-4.7-7S78.9,199.7,79.5,200.3z"/>
	<path class="st1" d="M71.4,211.8c0.6,0.7,0.5,1.7-0.2,2.3c-0.6,0.5-1.5,0.5-2.1,0c-0.6-0.6-4.7-7-4.7-7S70.8,211.1,71.4,211.8z"/>
	<path class="st1" d="M83,209L83,209c-6.7-5.2-22-15.8-22-15.8s10.6,15.3,15.8,22l0,0c-1.5,0.5-3.1,0.4-4.5-0.2
		c0,0,6.4,6.4,11.4,3.8l0,0c1.3-0.5,2.3-1.5,2.8-2.8l0,0c2.6-5-3.8-11.4-3.8-11.4C83.3,206,83.4,207.5,83,209z"/>
	<path class="st2" d="M84.5,211.8c1.4,1.4,1.4,3.5,0,4.9c-1.4,1.4-3.5,1.4-4.9,0l0,0c-1.3-1.3-10-14.8-10-14.8
		S83.1,210.5,84.5,211.8z"/>
	<path class="st3" d="M84.4,213.6L84.4,213.6c-0.1,0-0.1,0-0.1-0.1l0,0c-0.1-0.2-0.1-0.4-0.3-0.6v-0.2l0,0c0.1-0.3-0.1-0.6-0.5-0.7
		c-0.1,0-0.2,0-0.2,0h-0.2l-0.6-0.3c-0.1,0-0.1,0-0.1-0.1l0,0l0,0c-0.2-0.3-0.5-0.4-0.8-0.2c-0.1,0.1-0.2,0.1-0.2,0.2l0,0
		c0,0.1,0,0.1-0.1,0.1c0,0,0,0,0,0c-0.2,0.1-0.4,0.1-0.6,0.3h-0.2c-0.3-0.1-0.6,0.1-0.7,0.5c0,0.1,0,0.2,0,0.2l0,0v0.2l-0.3,0.6
		c0,0.1,0,0.1-0.1,0.1c0,0,0,0,0,0l0,0c-0.3,0.2-0.4,0.5-0.2,0.8c0.1,0.1,0.1,0.2,0.2,0.2l0,0c0.1,0,0.1,0,0.1,0.1l0,0
		c0.1,0.2,0.1,0.4,0.3,0.6v0.2l0,0c-0.1,0.3,0.1,0.6,0.5,0.7c0.1,0,0.2,0,0.2,0h0.2l0.6,0.3c0.1,0,0.1,0,0.1,0.1l0,0l0,0
		c0.2,0.3,0.5,0.4,0.8,0.2c0.1-0.1,0.2-0.1,0.2-0.2l0,0c0-0.1,0-0.1,0.1-0.1c0,0,0,0,0,0c0.2-0.1,0.4-0.1,0.6-0.3h0.2
		c0.3,0.1,0.6-0.1,0.7-0.5c0-0.1,0-0.2,0-0.2l0,0v-0.2l0.3-0.6c0-0.1,0-0.1,0.1-0.1c0,0,0,0,0,0l0,0c0.3-0.2,0.4-0.5,0.2-0.8
		C84.6,213.7,84.5,213.7,84.4,213.6z"/>
	<circle class="st4" cx="80.4" cy="213.2" r="0.6"/>
	<circle class="st4" cx="83.5" cy="214.1" r="0.6"/>
	<path class="st4" d="M82.1,213.6c0.1,0.1,0.1,0.4,0,0.5c-0.1,0.1-0.4,0.1-0.5,0c-0.1-0.1-0.1-0.4,0-0.5
		C81.8,213.5,81.9,213.5,82.1,213.6z"/>
	<circle class="st4" cx="80.6" cy="215.3" r="0.3"/>
	<path class="st4" d="M82.7,215.1c0.2,0.2,0.2,0.6,0,0.8s-0.6,0.2-0.8,0s-0.2-0.6,0-0.8c0,0,0,0,0,0
		C82.1,214.9,82.5,214.9,82.7,215.1z"/>
	<path class="st4" d="M82.4,212c0.1,0.1,0.1,0.4,0,0.5c-0.1,0.1-0.4,0.1-0.5,0c-0.1-0.1-0.1-0.4,0-0.5
		C82.1,211.9,82.2,211.9,82.4,212z"/>
	<path class="st5" d="M83.3,211.9h-0.2l-0.6-0.3l0,0c0.8,0.6,1.2,1.6,1,2.6c-0.3,1.1-1.2,2-2.3,2.3c0.1,0,0.1,0,0.1,0.1l0,0l0,0
		c0.2,0.3,0.5,0.4,0.8,0.2c0.1-0.1,0.2-0.1,0.2-0.2l0,0c0-0.1,0-0.1,0.1-0.1c0,0,0,0,0,0c0.2-0.1,0.4-0.1,0.6-0.3h0.2
		c0.3,0.1,0.6-0.1,0.7-0.5c0-0.1,0-0.2,0-0.2v-0.2l0.3-0.6c0-0.1,0-0.1,0.1-0.1c0,0,0,0,0,0l0,0c0.3-0.2,0.4-0.5,0.2-0.8
		c-0.1-0.1-0.1-0.2-0.2-0.2l0,0c-0.1,0-0.1,0-0.1-0.1l0,0c-0.1-0.2-0.1-0.4-0.3-0.6v-0.2l0,0c0.1-0.3,0-0.6-0.2-0.7
		C83.6,211.9,83.4,211.9,83.3,211.9z"/>
</g>
<polygon id="Fill-4" class="st6" points="127.7,33.9 129,36.3 131.4,37.7 129,39 127.7,41.4 126.3,39 123.9,37.7 126.3,36.3 "/>
<polygon id="Fill-4-Copy" class="st6" points="40.2,129.9 41.3,132 43.4,133.2 41.3,134.3 40.2,136.4 39,134.3 36.9,133.2 39,132 
	"/>
<polygon id="Fill-4-Copy-9" class="st6" points="15.2,77.9 16.3,80 18.4,81.2 16.3,82.3 15.2,84.4 14,82.3 11.9,81.2 14,80 "/>
<polygon id="Fill-4-Copy-2" class="st6" points="444.7,136.9 446,139.3 448.4,140.7 446,142 444.7,144.4 443.3,142 440.9,140.7 
	443.3,139.3 "/>
<polygon id="Fill-4-Copy-10" class="st6" points="472.7,190.9 474,193.3 476.4,194.7 474,196 472.7,198.4 471.3,196 468.9,194.7 
	471.3,193.3 "/>
<polygon id="Fill-4-Copy-3" class="st7" points="400.7,48.9 402,51.3 404.4,52.7 402,54 400.7,56.4 399.3,54 396.9,52.7 399.3,51.3 
	"/>
<polygon id="Fill-4-Copy-4" class="st6" points="354.2,145.9 355.3,148 357.4,149.2 355.3,150.3 354.2,152.4 353,150.3 350.9,149.2 
	353,148 "/>
<polygon id="Fill-4-Copy-5" class="st7" points="476.2,84.9 477.3,87 479.4,88.2 477.3,89.3 476.2,91.4 475,89.3 472.9,88.2 475,87 
	"/>
<polygon id="Fill-4-Copy-11" class="st8" points="340.2,97.9 341.3,100 343.4,101.2 341.3,102.3 340.2,104.4 339,102.3 336.9,101.2 
	339,100 "/>
<polygon id="Fill-4-Copy-6" class="st6" points="222.2,9.9 223.3,12 225.4,13.2 223.3,14.3 222.2,16.4 221,14.3 218.9,13.2 221,12 
	"/>
<polygon id="Fill-4-Copy-7" class="st6" points="151.2,108.9 152.3,111 154.4,112.2 152.3,113.3 151.2,115.4 150,113.3 147.9,112.2 
	150,111 "/>
<polygon id="Fill-4-Copy-8" class="st6" points="88.2,174.9 89.3,177 91.4,178.2 89.3,179.3 88.2,181.4 87,179.3 84.9,178.2 87,177 
	"/>
<g id="Illustrations_Star" class="st9">
	<g id="Group-16">
		
			<linearGradient id="Fill-1_1_" gradientUnits="userSpaceOnUse" x1="-221.6513" y1="429.5781" x2="-220.9613" y2="430.2181" gradientTransform="matrix(42.74 0 0 -34.26 9537.54 14861.1094)">
			<stop  offset="3.000000e-02" style="stop-color:#1080C9"/>
			<stop  offset="1" style="stop-color:#0E66B3;stop-opacity:0"/>
		</linearGradient>
		<path id="Fill-1" class="st10" d="M98.4,115L59,144c-1.3,1-1.5,2.8-0.5,4.1c0,0,0,0,0,0c0.6,0.7,1.4,1.1,2.3,1.1l0,0
			c0.6,0,1.2-0.2,1.7-0.6l38.1-30.7L98.4,115z"/>
		<polygon id="Fill-4-2" class="st11" points="61,143.7 61.8,145.2 63.4,146.1 61.8,147 61,148.5 60.1,147 58.6,146.1 60.1,145.2 		
			"/>
	</g>
</g>
<g id="Illustrations_Star-2" class="st9">
	<g id="Group-16-2">
		
			<linearGradient id="Fill-1-2_1_" gradientUnits="userSpaceOnUse" x1="-585.8204" y1="472.2132" x2="-585.1304" y2="472.8632" gradientTransform="matrix(50.51 0 0 -40.6 30019.041 19281.459)">
			<stop  offset="3.000000e-02" style="stop-color:#1080C9"/>
			<stop  offset="1" style="stop-color:#0E66B3;stop-opacity:0"/>
		</linearGradient>
		<path id="Fill-1-2" class="st12" d="M469.8,75.4l-46.6,34.4c-1.5,1.1-1.8,3.2-0.7,4.7c0,0,0,0,0.1,0.1c0.6,0.9,1.6,1.4,2.7,1.4
			l0,0c0.8,0,1.5-0.2,2.1-0.7l45-36.4L469.8,75.4z"/>
		<polygon id="Fill-4-3" class="st11" points="425.6,109.6 426.6,111.3 428.4,112.3 426.6,113.3 425.6,115.3 424.6,113.3 
			422.7,112.3 424.6,111.3 		"/>
	</g>
</g>
<g>
	<defs>
		<rect id="SVGID_1_" x="0.1" y="-85" width="500" height="500"/>
	</defs>
	<clipPath id="SVGID_2_">
		<use xlink:href="#SVGID_1_"  style="overflow:visible;"/>
	</clipPath>
	<g class="st13">
		
			<ellipse transform="matrix(0.532 -0.8468 0.8468 0.532 70.7759 502.8176)" class="st14" cx="490.2" cy="187.4" rx="32.6" ry="32.6"/>
		<path class="st15" d="M505.9,158.8c-0.2,0.3-0.4,0.6-0.3,1c-1.1-0.6-2.4-0.2-3,0.9c0,0,0,0.1,0,0.1c-0.2,0.6-0.3,1.3-0.3,2
			c-0.1,0.7-0.4,1.4-1.1,1.5c-1.5,0.4-2.4-1.8-4.1-1.5c-1.3,0.2-2.5,0.9-3.3,2c-0.6,0.9-0.8,2.9,0.8,2.8c0.8,0,1.5-0.9,2.3-0.8
			c1.2,0.3,0.9,1.3,0.2,2c-1.1,1.1-2.4,0.9-3.8,1.3c-1.1,0.3-1.6,1.5-2.7,1.8c-0.3,0.1-0.8,0.2-0.8,0.5c0,0.2,0.1,0.4,0.3,0.5
			c0.3,0.5,0.1,1.1-0.3,1.4c0,0,0,0-0.1,0c-0.5,0.3-1,0.5-1.5,0.6c-0.5,0.2-1.1,0.4-1.3,0.9c-0.3,0.6-0.1,1.2,0.4,1.6
			c0.9,0.6,2.5-0.5,3.2-1.1s1.2-1.1,1.8-1.7c0.4-0.6,1.2-0.9,1.9-0.8c0.3,0.1,0.5,0.3,0.7,0.6c0.9,1,1.9,2,2.8,3
			c0.5-0.7-0.1-1.7-0.6-2.5c0.3-0.4,1.1-0.3,1.5,0.1c0.3,0.4,0.6,1,0.6,1.5c0.2,0.5,0.4,1.1,0.9,1.3s1.3-0.2,1.1-0.7
			s-0.7-0.7-0.8-1.1c-0.1-0.6,0.7-0.9,1.2-0.6c0.5,0.3,0.8,0.8,1.1,1.3c0.3,0.5,0.7,0.8,1.3,0.9c0.6-0.1,1.1-0.7,1.6-0.5
			c0.1,0.1,0.3,0.2,0.3,0.3c0.4,0.6,0.3,1.5-0.3,2c-0.6,0.6-1,0.9-1.1,1.2c-0.1-0.1-0.2-0.1-0.3-0.2c-1.3-0.4-2.8-0.3-4.1,0.1
			c-1.4,0.2-3,0.2-3.9-0.9c-0.5-0.6-0.7-1.4-1.3-1.8c-0.8-0.4-1.8-0.3-2.6,0.2c-1.7,0.6-3.4,1.5-4.9,2.5c-3.3,2.6-4.8,6.9-3.8,11
			c0.7,2.5,2.7,5,5.4,5c1.2-0.1,2.4-0.4,3.5-0.7c1.2-0.2,2.6,0.2,3,1.3c0.3,0.8,0,1.8,0.3,2.6s1.2,1.1,1.5,1.8
			c0.7,1.6-1.6,3.3-1.2,5c0.2,0.6,0.6,1,0.8,1.6c0.6,1.3-0.3,3,0.5,4.2c0.9,1.5,3.2,1,4.5-0.2s1.9-2.9,3.2-4c1-0.7,2-1.5,2.9-2.3
			c1.2-1.5,1-3.7,1.8-5.5c1.2-2.8,4.6-4.3,5.7-7.2c0.4-1.1,0.2-2.7-0.9-2.9h-0.7c-0.6,0.3-1.3,0.3-1.9,0.1c-0.8-0.4-1.6-1-2.1-1.7
			c-1-1.2-1.8-2.5-2.5-3.8c-0.4-0.9-0.8-1.8-1.4-2.6c1.1,0.9,2.1,2,2.9,3.2c0.8,1.1,1.7,2.2,2.7,3.1c0.3,0.3,0.7,0.6,1.1,0.6
			c0.8,0.1,1.4-0.8,1.8-1.5s0.6-1.3,0.9-2s0.6-1.7,0.1-2.2c-0.2-0.2-0.5-0.3-0.7-0.5c-0.4-0.4-0.3-1,0.1-1.4
			c0.1-0.1,0.2-0.1,0.3-0.2c0.6-0.3,1.3-0.2,1.9,0.1c1.5,0.7,2.5,2.2,2.6,3.9c-0.1,0.8-0.1,1.6-0.1,2.4c0.1,0.8,0.8,1.5,1.6,1.6
			c0.3,0,0.6-0.1,0.8-0.3c0.3-0.2,0.5-0.4,0.7-0.6v-1.1C522.8,175.4,516.3,164.5,505.9,158.8z"/>
		<path class="st15" d="M478.3,203.3c-1-1.1-2.1-2.1-3.1-3.2c-0.3-0.3-0.6-0.6-1-0.7c-0.6-0.2-1.4,0.2-1.9-0.2
			c-0.2-0.1-0.3-0.4-0.4-0.6c-0.4-0.8-1.1-1.2-1.5-1.9c-0.3-0.7-0.6-1.5-0.7-2.3c-0.5-2-2.4-3.5-4.5-3.4c-0.4,0-0.8,0.1-1.1,0.3
			c-0.8,0.6-0.6,1.9,0,2.7c0.7,1,1.5,1.7-0.2,2.2c-0.9,0.3-1.8,0-2.5-0.6c-0.3-0.3-0.6-0.5-0.9-0.8c-0.6-0.5-1.4-0.8-2.2-0.8
			c1.7,8.2,6.4,15.4,13.3,20.1c0.2,0,0.3-0.1,0.5-0.1c2-0.3,4,0.2,6.1,0.2c3.8,0,6.7-3,4.4-6.7C481.5,205.8,479.7,204.7,478.3,203.3
			z"/>
		<path class="st15" d="M458.2,181.2c1.2,1.6,4.5-3.1,5.2-3.9c0.5-0.6,1-1.1,1.6-1.5c1.4-0.9,3.6-0.8,4.3-2.4
			c0.2-0.5,0.4-1.1,0.6-1.6c0.3-0.5,1.2-0.7,1.4-0.2s-0.3,1-0.1,1.5s0.8,0.6,1.2,0.4c0.4-0.3,0.7-0.7,0.9-1.2
			c-0.6-0.4-0.5-1.3-0.1-1.9c0.4-0.5,0.8-1.1,1.1-1.7c0.1-0.5,0.1-0.9,0.1-1.4c0.2-0.5,0.3-0.9,0.4-1.4c0.1-0.5-0.1-1-0.6-1.2
			c-0.3-0.1-0.6,0-0.9,0.1c-1.2,0.5-2.5,1-3.7,1.5c0.5-1.7,2.2-2.9,4-2.8c0.7,0.1,1.4,0.2,2.1,0.2c1.5-0.2,2.4-1.9,3.8-2.5
			c0.5-0.2,1.2-0.2,1.3,0.3v0.4c-0.3,0.8-0.7,1.4-1.4,1.9c-0.7,0.4-1.2,1.1-1.5,1.8c-0.3,0.7,0,1.5,0.7,1.8c0.1,0,0.1,0.1,0.2,0.1
			c0.8,0.1,1.4-0.7,1.9-1.3c0.8-0.8,1.9-1.4,3-1.5c0.5,0,1.1-0.1,1.6-0.2c1.6-0.4,2.3-2.2,2.9-3.8c0.1-0.2,0.2-0.5,0.1-0.7
			c-0.1-0.7-0.9-0.9-1.6-1c-2.9-0.3-6-0.6-8.6,0.7c-1.1,0.5-2.4,1.4-3.4,0.8c-0.3-0.1-0.5-0.4-0.8-0.5c-0.6-0.2-1.2-0.1-1.7,0.1l0,0
			C464.9,165,459.9,172.6,458.2,181.2z"/>
		<path class="st16" d="M515.1,166.4c0.5,2.4,0.8,4.9,0.8,7.4c0,18-14.6,32.6-32.6,32.6c-9.6,0-18.7-4.2-24.9-11.6
			c4.1,17.5,21.6,28.4,39.1,24.4c14.8-3.4,25.2-16.6,25.2-31.8C522.8,179.7,520.1,172.3,515.1,166.4z"/>
	</g>
</g>
<g>
	<defs>
		<rect id="SVGID_3_" x="0.1" y="-85" width="500" height="500"/>
	</defs>
	<clipPath id="SVGID_4_">
		<use xlink:href="#SVGID_3_"  style="overflow:visible;"/>
	</clipPath>
	<g class="st17">
		<circle class="st18" cx="72.7" cy="69.9" r="24.2"/>
		<path class="st19" d="M77.2,84.5c1.7-0.8,3.5-1.3,5.4-1.7c0.9-0.2,1.9,0.1,2.5,0.8c0.2,0.7,0,1.4-0.5,1.9c-0.6,0.5-1.2,0.8-1.9,1
			c-2.7,1-5.5,1.9-8.2,2.9c-1.7,0.6-4.9,1-3-1.5C72.7,86.2,75.3,85.3,77.2,84.5z"/>
		<path class="st20" d="M56.2,84.7c7.3-5.3,14.7-11.1,23.6-12.8c5.7-1.1,12.1-0.7,17.1-3c-0.1-2-0.4-4.1-1.1-6
			c-0.2-0.7-0.5-1.5-0.8-2.2c-2.1,0.8-4.2,1.6-6.2,2.4c-1.5,0.7-3.1,1.1-4.8,1c-1.6-0.2-3.3-1.4-3.3-3.1c0-0.8,0.3-1.6,0.7-2.3
			c1.6-3,3.8-5.6,6.4-7.7l0,0c-1.7-1.4-3.7-2.5-5.7-3.4c-1.1,0.8-2.2,1.7-3.1,2.8c-4.3,4.9-5.9,12.1-11,16.3
			c-3.9,3.2-9.1,4.1-13.4,6.7c-1.8,1.1-3.4,2.5-4.8,4.2c1,3,2.6,5.9,4.7,8.3C55.1,85.5,55.6,85.1,56.2,84.7z"/>
		<path class="st19" d="M56,70c1.3-0.6,2.7-1.1,4-1.7c4.2-1.9,7.9-4.8,10.8-8.4c0.4-0.4,0.6-0.9,0.8-1.4c0.1-1.3-0.8-2.6-2.2-2.7
			c0,0,0,0,0,0c-1.3-0.1-2.6,0.1-3.8,0.7c-6,2.5-11.7,5.8-16.8,9.9c-0.4,2.8-0.4,5.6,0.2,8.3C51.5,73.2,54.1,70.9,56,70z"/>
		<path class="st19" d="M70.8,50.7c0.1,0.4,0.4,0.8,0.8,1c1,0.4,2.1,0.3,2.9-0.4c0.8-0.7,1.4-1.5,1.9-2.4c0.4-0.6,1.4-1.6,2.2-2.6
			c-1.4-0.3-2.8-0.6-4.2-0.7c-1.2,1.1-2.3,2.4-3.2,3.7C70.9,49.9,70.7,50.3,70.8,50.7z"/>
		<path class="st20" d="M88.8,73.6c-6.1,0.8-12.4,1.1-17.8,3.9c-3.2,1.7-5.9,4.3-8.6,6.8l-4.2,3.9c-0.1,0.1-0.4,0.3-0.6,0.5
			c1.8,1.4,3.7,2.6,5.8,3.4c2.7-1.7,4.4-4.7,6.9-6.8c2.2-1.7,4.7-3.1,7.4-4c3.7-1.4,7.6-2.7,11.4-3.8c2.5-0.6,5-1.5,7.4-2.4
			c0.2-1,0.4-2,0.5-3C94.2,72.8,91.5,73.2,88.8,73.6z"/>
		<path class="st19" d="M50.5,60.4c1.5-0.1,3.3-1.5,4.3-2c4.5-2.5,8.7-5.4,12.5-8.8c1.2-0.9,2.1-2.2,2.5-3.6
			c-1.4,0.2-2.8,0.5-4.2,0.9C58.8,48.9,53.3,53.9,50.5,60.4z"/>
		<path class="st18" d="M91.2,54.4c0.4,1.8,0.6,3.7,0.6,5.5c0,13.4-10.8,24.2-24.2,24.2c-7.1,0-13.9-3.1-18.5-8.6
			c3.1,13,16.1,21.1,29.1,18c11-2.6,18.7-12.4,18.7-23.6C96.9,64.2,94.9,58.7,91.2,54.4z"/>
	</g>
</g>
<g>
	<path class="st1" d="M382.3,37.9c0.6,0.7,0.5,1.7-0.2,2.3c-0.6,0.5-1.5,0.5-2.1,0c-0.6-0.6-4.7-7-4.7-7S381.7,37.3,382.3,37.9z"/>
	<path class="st1" d="M374.2,49.4c0.6,0.7,0.5,1.7-0.2,2.3c-0.6,0.5-1.5,0.5-2.1,0c-0.6-0.6-4.7-7-4.7-7S373.5,48.8,374.2,49.4z"/>
	<path class="st1" d="M385.7,46.6L385.7,46.6c-6.7-5.2-22-15.8-22-15.8s10.6,15.3,15.8,22l0,0c-1.5,0.5-3.1,0.4-4.5-0.2
		c0,0,6.4,6.4,11.4,3.8l0,0c1.3-0.5,2.3-1.5,2.8-2.8l0,0c2.6-5-3.8-11.4-3.8-11.4C386.1,43.6,386.2,45.1,385.7,46.6z"/>
	<path class="st2" d="M387.3,49.5c1.4,1.4,1.4,3.5,0,4.9s-3.5,1.4-4.9,0l0,0c-1.4-1.3-10-14.8-10-14.8S385.9,48.1,387.3,49.5z"/>
	<path class="st3" d="M387.2,51.2L387.2,51.2c-0.1,0-0.1,0-0.1-0.1v0c-0.1-0.2-0.1-0.4-0.3-0.6v-0.2l0,0c0.1-0.3-0.1-0.6-0.5-0.7
		c-0.1,0-0.2,0-0.2,0h-0.2l-0.6-0.3c-0.1,0-0.1,0-0.1-0.1v0l0,0c-0.2-0.3-0.5-0.4-0.8-0.2c-0.1,0.1-0.2,0.1-0.2,0.2l0,0
		c0,0.1,0,0.1-0.1,0.1l0,0c-0.2,0.1-0.4,0.1-0.6,0.3h-0.2c-0.3-0.1-0.6,0.1-0.7,0.5c0,0.1,0,0.2,0,0.2l0,0v0.2l-0.3,0.6
		c0,0.1,0,0.1-0.1,0.1l0,0l0,0c-0.3,0.2-0.4,0.5-0.2,0.8c0.1,0.1,0.1,0.2,0.2,0.2l0,0c0.1,0,0.1,0,0.1,0.1v0
		c0.1,0.2,0.1,0.4,0.3,0.6v0.2l0,0c-0.1,0.3,0.1,0.6,0.5,0.7c0.1,0,0.2,0,0.2,0h0.2l0.6,0.3c0.1,0,0.1,0,0.1,0.1v0l0,0
		c0.2,0.3,0.5,0.4,0.8,0.2c0.1-0.1,0.2-0.1,0.2-0.2l0,0c0-0.1,0-0.1,0.1-0.1l0,0c0.2-0.1,0.4-0.1,0.6-0.3h0.2
		c0.3,0.1,0.6-0.1,0.7-0.5c0-0.1,0-0.2,0-0.2l0,0v-0.2l0.3-0.6c0-0.1,0-0.1,0.1-0.1l0,0l0,0c0.3-0.2,0.4-0.5,0.2-0.8
		C387.4,51.3,387.3,51.3,387.2,51.2z"/>
	<circle class="st4" cx="383.2" cy="50.8" r="0.6"/>
	<circle class="st4" cx="386.3" cy="51.7" r="0.6"/>
	<path class="st4" d="M384.8,51.3c0.1,0.1,0.1,0.4,0,0.5c-0.1,0.1-0.4,0.1-0.5,0c-0.1-0.1-0.1-0.4,0-0.5
		C384.5,51.2,384.6,51.2,384.8,51.3z"/>
	<circle class="st4" cx="383.4" cy="52.9" r="0.3"/>
	<path class="st4" d="M385.5,52.7c0.2,0.2,0.2,0.6,0,0.8c-0.2,0.2-0.6,0.2-0.8,0c-0.2-0.2-0.2-0.6,0-0.8c0,0,0,0,0,0
		C384.9,52.5,385.3,52.5,385.5,52.7z"/>
	<path class="st4" d="M385.1,49.6c0.1,0.1,0.1,0.4,0,0.5c-0.1,0.1-0.4,0.1-0.5,0c-0.1-0.1-0.1-0.4,0-0.5
		C384.8,49.5,384.9,49.5,385.1,49.6z"/>
	<path class="st5" d="M386.1,49.5h-0.2l-0.6-0.3l0,0c0.8,0.6,1.2,1.6,1,2.6c-0.3,1.1-1.2,2-2.3,2.3c0.1,0,0.1,0,0.1,0.1v0l0,0
		c0.2,0.3,0.5,0.4,0.8,0.2c0.1-0.1,0.2-0.1,0.2-0.2l0,0c0-0.1,0-0.1,0.1-0.1l0,0c0.2-0.1,0.4-0.1,0.6-0.3h0.2
		c0.3,0.1,0.6-0.1,0.7-0.5c0-0.1,0-0.2,0-0.2v-0.2l0.3-0.6c0-0.1,0-0.1,0.1-0.1l0,0l0,0c0.3-0.2,0.4-0.5,0.2-0.8
		c-0.1-0.1-0.1-0.2-0.2-0.2l0,0c-0.1,0-0.1,0-0.1-0.1v0c-0.1-0.2-0.1-0.4-0.3-0.6v-0.2l0,0c0.1-0.3,0-0.6-0.2-0.7
		C386.4,49.5,386.2,49.5,386.1,49.5z"/>
</g>
<g>
	<path class="st1" d="M167.6,43.9c0.6,0.7,0.5,1.7-0.2,2.3c-0.6,0.5-1.5,0.5-2.1,0c-0.6-0.6-4.7-7-4.7-7S167,43.3,167.6,43.9z"/>
	<path class="st1" d="M159.5,55.4c0.6,0.7,0.5,1.7-0.2,2.3c-0.6,0.5-1.5,0.5-2.1,0c-0.6-0.6-4.7-7-4.7-7S158.8,54.7,159.5,55.4z"/>
	<path class="st1" d="M171.1,52.6L171.1,52.6c-6.7-5.2-22-15.8-22-15.8s10.6,15.3,15.8,22l0,0c-1.5,0.5-3.1,0.4-4.5-0.2
		c0,0,6.4,6.4,11.4,3.8l0,0c1.3-0.5,2.3-1.5,2.8-2.8l0,0c2.6-5-3.8-11.4-3.8-11.4C171.4,49.6,171.5,51.1,171.1,52.6z"/>
	<path class="st2" d="M172.6,55.4c1.4,1.4,1.4,3.5,0,4.9c-1.4,1.4-3.5,1.4-4.9,0l0,0c-1.3-1.3-10-14.8-10-14.8
		S171.2,54.1,172.6,55.4z"/>
	<path class="st3" d="M172.5,57.2L172.5,57.2c-0.1,0-0.1,0-0.1-0.1v0c-0.1-0.2-0.1-0.4-0.3-0.6v-0.2l0,0c0.1-0.3-0.1-0.6-0.5-0.7
		c-0.1,0-0.2,0-0.2,0h-0.2l-0.6-0.3c-0.1,0-0.1,0-0.1-0.1v0l0,0c-0.2-0.3-0.5-0.4-0.8-0.2c-0.1,0.1-0.2,0.1-0.2,0.2l0,0
		c0,0.1,0,0.1-0.1,0.1l0,0c-0.2,0.1-0.4,0.1-0.6,0.3h-0.2c-0.3-0.1-0.6,0.1-0.7,0.5c0,0.1,0,0.2,0,0.2l0,0v0.2l-0.3,0.6
		c0,0.1,0,0.1-0.1,0.1l0,0l0,0c-0.3,0.2-0.4,0.5-0.2,0.8c0.1,0.1,0.1,0.2,0.2,0.2l0,0c0.1,0,0.1,0,0.1,0.1v0
		c0.1,0.2,0.1,0.4,0.3,0.6v0.2l0,0c-0.1,0.3,0.1,0.6,0.5,0.7c0.1,0,0.2,0,0.2,0h0.2l0.6,0.3c0.1,0,0.1,0,0.1,0.1v0l0,0
		c0.2,0.3,0.5,0.4,0.8,0.2c0.1-0.1,0.2-0.1,0.2-0.2l0,0c0-0.1,0-0.1,0.1-0.1l0,0c0.2-0.1,0.4-0.1,0.6-0.3h0.2
		c0.3,0.1,0.6-0.1,0.7-0.5c0-0.1,0-0.2,0-0.2l0,0v-0.2l0.3-0.6c0-0.1,0-0.1,0.1-0.1l0,0l0,0c0.3-0.2,0.4-0.5,0.2-0.8
		C172.7,57.3,172.6,57.3,172.5,57.2z"/>
	<circle class="st4" cx="168.5" cy="56.8" r="0.6"/>
	<circle class="st4" cx="171.6" cy="57.7" r="0.6"/>
	<path class="st4" d="M170.2,57.2c0.1,0.1,0.1,0.4,0,0.5s-0.4,0.1-0.5,0c-0.1-0.1-0.1-0.4,0-0.5C169.9,57.1,170,57.1,170.2,57.2z"/>
	<circle class="st4" cx="168.7" cy="58.9" r="0.3"/>
	<path class="st4" d="M170.8,58.7c0.2,0.2,0.2,0.6,0,0.8s-0.6,0.2-0.8,0c-0.2-0.2-0.2-0.6,0-0.8c0,0,0,0,0,0
		C170.2,58.5,170.6,58.5,170.8,58.7z"/>
	<path class="st4" d="M170.4,55.6c0.1,0.1,0.1,0.4,0,0.5s-0.4,0.1-0.5,0c-0.1-0.1-0.1-0.4,0-0.5C170.1,55.5,170.2,55.5,170.4,55.6z"
		/>
	<path class="st5" d="M171.4,55.5h-0.2l-0.6-0.3l0,0c0.8,0.6,1.2,1.6,1,2.6c-0.3,1.1-1.2,2-2.3,2.3c0.1,0,0.1,0,0.1,0.1v0l0,0
		c0.2,0.3,0.5,0.4,0.8,0.2c0.1-0.1,0.2-0.1,0.2-0.2l0,0c0-0.1,0-0.1,0.1-0.1l0,0c0.2-0.1,0.4-0.1,0.6-0.3h0.2
		c0.3,0.1,0.6-0.1,0.7-0.5c0-0.1,0-0.2,0-0.2v-0.2l0.3-0.6c0-0.1,0-0.1,0.1-0.1l0,0l0,0c0.3-0.2,0.4-0.5,0.2-0.8
		c-0.1-0.1-0.1-0.2-0.2-0.2l0,0c-0.1,0-0.1,0-0.1-0.1v0c-0.1-0.2-0.1-0.4-0.3-0.6v-0.2l0,0c0.1-0.3,0-0.6-0.2-0.7
		C171.7,55.5,171.5,55.5,171.4,55.5z"/>
</g>
<title>Mono_cohete_espacial</title>
<desc>Created with Sketch.</desc>
<defs>
	<filter id="Adobe_OpacityMaskFilter" filterUnits="userSpaceOnUse" x="-114" y="199" width="728" height="234">
		<feColorMatrix  type="matrix" values="1 0 0 0 0  0 1 0 0 0  0 0 1 0 0  0 0 0 1 0"/>
	</filter>
</defs>
<mask maskUnits="userSpaceOnUse" x="-114" y="199" width="728" height="234" id="mask-3_2_">
	<g class="st21">
		<polygon id="path-2_3_" class="st22" points="0,0 500,0 500,336 0,336 		"/>
	</g>
</mask>
<g id="Group-10" class="st23">
	<g transform="translate(-114.000000, 200.000000)">
		<g id="Oval">
			
				<linearGradient id="path-12_10_" gradientUnits="userSpaceOnUse" x1="59.5756" y1="364.0258" x2="59.5756" y2="363.8073" gradientTransform="matrix(728 0 0 -233 -43007 84818)">
				<stop  offset="0" style="stop-color:#D6DFEB"/>
				<stop  offset="1" style="stop-color:#FFFFFF"/>
			</linearGradient>
			<ellipse id="path-12_1_" class="st24" cx="364" cy="116.5" rx="364" ry="116.5"/>
		</g>
		<defs>
			<filter id="Adobe_OpacityMaskFilter_1_" filterUnits="userSpaceOnUse" x="132.3" y="12.3" width="53" height="20">
				<feColorMatrix  type="matrix" values="1 0 0 0 0  0 1 0 0 0  0 0 1 0 0  0 0 0 1 0"/>
			</filter>
		</defs>
		<mask maskUnits="userSpaceOnUse" x="132.3" y="12.3" width="53" height="20" id="mask-13_1_">
			<g class="st25">
				<ellipse id="path-12_2_" class="st22" cx="364" cy="116.5" rx="364" ry="116.5"/>
			</g>
		</mask>
		<g id="Oval-3-Copy-2" class="st26">
			<g>
				
					<linearGradient id="path-15_2_" gradientUnits="userSpaceOnUse" x1="60.6276" y1="349.8232" x2="60.6276" y2="350.7926" gradientTransform="matrix(48.7742 0 0 -16.012 -2798.4121 5631.6685)">
					<stop  offset="0" style="stop-color:#B0C3E1;stop-opacity:0.1"/>
					<stop  offset="1" style="stop-color:#BBC7DC"/>
				</linearGradient>
				<path id="path-15" class="st27" d="M160,27.5c-13.4,3.4-24.9,3.7-25.7,0.9s9.6-7.9,23.1-11.3c13.4-3.4,24.9-3.7,25.7-0.9
					S173.4,24.2,160,27.5z"/>
			</g>
			<g class="st28">
				<path id="path-15_3_" d="M160,27.5c-13.4,3.4-24.9,3.7-25.7,0.9s9.6-7.9,23.1-11.3c13.4-3.4,24.9-3.7,25.7-0.9
					S173.4,24.2,160,27.5z"/>
			</g>
		</g>
		<defs>
			<filter id="Adobe_OpacityMaskFilter_2_" filterUnits="userSpaceOnUse" x="142.9" y="38.3" width="38" height="15">
				<feColorMatrix  type="matrix" values="1 0 0 0 0  0 1 0 0 0  0 0 1 0 0  0 0 0 1 0"/>
			</filter>
		</defs>
		<mask maskUnits="userSpaceOnUse" x="142.9" y="38.3" width="38" height="15" id="mask-13_2_">
			<g class="st29">
				<ellipse id="path-12_3_" class="st22" cx="364" cy="116.5" rx="364" ry="116.5"/>
			</g>
		</mask>
		<g id="Oval-3-Copy-4" class="st30">
			<g>
				
					<linearGradient id="path-17_2_" gradientUnits="userSpaceOnUse" x1="61.1013" y1="343.8684" x2="61.1013" y2="344.8379" gradientTransform="matrix(34.3473 0 0 -11.2758 -1936.5995 3928.9897)">
					<stop  offset="0" style="stop-color:#B0C3E1;stop-opacity:0.1"/>
					<stop  offset="1" style="stop-color:#BBC7DC"/>
				</linearGradient>
				<ellipse id="path-17" class="st31" cx="162.1" cy="46" rx="17.2" ry="5.6"/>
			</g>
			<g class="st32">
				<ellipse id="path-17_3_" cx="162.1" cy="46" rx="17.2" ry="5.6"/>
			</g>
		</g>
		<defs>
			<filter id="Adobe_OpacityMaskFilter_3_" filterUnits="userSpaceOnUse" x="432.8" y="17.7" width="63" height="18">
				<feColorMatrix  type="matrix" values="1 0 0 0 0  0 1 0 0 0  0 0 1 0 0  0 0 0 1 0"/>
			</filter>
		</defs>
		<mask maskUnits="userSpaceOnUse" x="432.8" y="17.7" width="63" height="18" id="mask-13_3_">
			<g class="st33">
				<ellipse id="path-12_4_" class="st22" cx="364" cy="116.5" rx="364" ry="116.5"/>
			</g>
		</mask>
		<g id="Oval-3" class="st34">
			<g>
				
					<linearGradient id="path-19_2_" gradientUnits="userSpaceOnUse" x1="60.4279" y1="347.347" x2="60.4279" y2="348.3164" gradientTransform="matrix(59.2754 0 0 -13.6312 -3117.4058 4768.0986)">
					<stop  offset="0" style="stop-color:#B0C3E1;stop-opacity:0.1"/>
					<stop  offset="1" style="stop-color:#BBC7DC"/>
				</linearGradient>
				<ellipse id="path-19" class="st35" cx="464.5" cy="26.5" rx="29.6" ry="6.8"/>
			</g>
			<g class="st36">
				<ellipse id="path-19_3_" cx="464.5" cy="26.5" rx="29.6" ry="6.8"/>
			</g>
		</g>
		<defs>
			<filter id="Adobe_OpacityMaskFilter_4_" filterUnits="userSpaceOnUse" x="503.2" y="4.8" width="53" height="18">
				<feColorMatrix  type="matrix" values="1 0 0 0 0  0 1 0 0 0  0 0 1 0 0  0 0 0 1 0"/>
			</filter>
		</defs>
		<mask maskUnits="userSpaceOnUse" x="503.2" y="4.8" width="53" height="18" id="mask-13_4_">
			<g class="st37">
				<ellipse id="path-12_5_" class="st22" cx="364" cy="116.5" rx="364" ry="116.5"/>
			</g>
		</mask>
		<g id="Oval-3-Copy-6" class="st38">
			<g>
				
					<linearGradient id="path-21_2_" gradientUnits="userSpaceOnUse" x1="60.6256" y1="347.5226" x2="60.6256" y2="348.4921" gradientTransform="matrix(48.8616 0 0 -13.7765 -2432.6401 4808.1611)">
					<stop  offset="0" style="stop-color:#B0C3E1;stop-opacity:0.1"/>
					<stop  offset="1" style="stop-color:#BBC7DC"/>
				</linearGradient>
				<ellipse id="path-21" class="st39" cx="529.6" cy="13.6" rx="24.4" ry="6.9"/>
			</g>
			<g class="st40">
				<ellipse id="path-21_3_" cx="529.6" cy="13.6" rx="24.4" ry="6.9"/>
			</g>
		</g>
		<defs>
			<filter id="Adobe_OpacityMaskFilter_5_" filterUnits="userSpaceOnUse" x="371" y="0" width="54" height="12">
				<feColorMatrix  type="matrix" values="1 0 0 0 0  0 1 0 0 0  0 0 1 0 0  0 0 0 1 0"/>
			</filter>
		</defs>
		<mask maskUnits="userSpaceOnUse" x="371" y="0" width="54" height="12" id="mask-13_5_">
			<g class="st41">
				<ellipse id="path-12_6_" class="st22" cx="364" cy="116.5" rx="364" ry="116.5"/>
			</g>
		</mask>
		<g id="Oval-3-Copy-3" class="st42">
			<g>
				
					<linearGradient id="path-23_2_" gradientUnits="userSpaceOnUse" x1="60.6" y1="336.9117" x2="60.6" y2="337.8811" gradientTransform="matrix(50 0 0 -8.38 -2632 2833.7)">
					<stop  offset="0" style="stop-color:#B0C3E1;stop-opacity:0.1"/>
					<stop  offset="1" style="stop-color:#BBC7DC"/>
				</linearGradient>
				<ellipse id="path-23" class="st43" cx="398" cy="6.2" rx="25" ry="4.2"/>
			</g>
			<g class="st44">
				<ellipse id="path-23_3_" cx="398" cy="6.2" rx="25" ry="4.2"/>
			</g>
		</g>
		<defs>
			<filter id="Adobe_OpacityMaskFilter_6_" filterUnits="userSpaceOnUse" x="255" y="-1" width="54" height="12">
				<feColorMatrix  type="matrix" values="1 0 0 0 0  0 1 0 0 0  0 0 1 0 0  0 0 0 1 0"/>
			</filter>
		</defs>
		<mask maskUnits="userSpaceOnUse" x="255" y="-1" width="54" height="12" id="mask-13_6_">
			<g class="st45">
				<ellipse id="path-12_7_" class="st22" cx="364" cy="116.5" rx="364" ry="116.5"/>
			</g>
		</mask>
		<g id="Oval-3-Copy-7" class="st46">
			<g>
				
					<linearGradient id="path-25_2_" gradientUnits="userSpaceOnUse" x1="60.5999" y1="336.8323" x2="60.5999" y2="337.8018" gradientTransform="matrix(50.004 0 0 -8.3555 -2748.2378 2823.7744)">
					<stop  offset="0" style="stop-color:#B0C3E1;stop-opacity:0.1"/>
					<stop  offset="1" style="stop-color:#BBC7DC"/>
				</linearGradient>
				<path id="path-25" class="st47" d="M282,9.3c-13.8,0.3-25-1.2-25-3.5s11.2-4.4,25-4.7c13.8-0.3,25,1.2,25,3.5S295.8,9,282,9.3z"
					/>
			</g>
			<g class="st48">
				<path id="path-25_3_" d="M282,9.3c-13.8,0.3-25-1.2-25-3.5s11.2-4.4,25-4.7c13.8-0.3,25,1.2,25,3.5S295.8,9,282,9.3z"/>
			</g>
		</g>
		<defs>
			<filter id="Adobe_OpacityMaskFilter_7_" filterUnits="userSpaceOnUse" x="556" y="32" width="40" height="15">
				<feColorMatrix  type="matrix" values="1 0 0 0 0  0 1 0 0 0  0 0 1 0 0  0 0 0 1 0"/>
			</filter>
		</defs>
		<mask maskUnits="userSpaceOnUse" x="556" y="32" width="40" height="15" id="mask-13_7_">
			<g class="st49">
				<ellipse id="path-12_8_" class="st22" cx="364" cy="116.5" rx="364" ry="116.5"/>
			</g>
		</mask>
		<g id="Oval-3-Copy-5" class="st50">
			<g>
				
					<linearGradient id="path-27_2_" gradientUnits="userSpaceOnUse" x1="61.0079" y1="343.8006" x2="61.0079" y2="344.77" gradientTransform="matrix(36.475 0 0 -11.2379 -1649.0254 3908.8494)">
					<stop  offset="0" style="stop-color:#B0C3E1;stop-opacity:0.1"/>
					<stop  offset="1" style="stop-color:#BBC7DC"/>
				</linearGradient>
				<ellipse id="path-27" class="st51" cx="576.2" cy="39.6" rx="18.2" ry="5.6"/>
			</g>
			<g class="st52">
				<ellipse id="path-27_3_" cx="576.2" cy="39.6" rx="18.2" ry="5.6"/>
			</g>
		</g>
		<defs>
			<filter id="Adobe_OpacityMaskFilter_8_" filterUnits="userSpaceOnUse" x="236.9" y="14.2" width="79" height="20">
				<feColorMatrix  type="matrix" values="1 0 0 0 0  0 1 0 0 0  0 0 1 0 0  0 0 0 1 0"/>
			</filter>
		</defs>
		<mask maskUnits="userSpaceOnUse" x="236.9" y="14.2" width="79" height="20" id="mask-13_8_">
			<g class="st53">
				<ellipse id="path-12_9_" class="st22" cx="364" cy="116.5" rx="364" ry="116.5"/>
			</g>
		</mask>
		<g id="Oval-3-Copy" class="st54">
			<g>
				
					<linearGradient id="path-29_2_" gradientUnits="userSpaceOnUse" x1="60.2376" y1="350.2029" x2="60.2376" y2="351.1723" gradientTransform="matrix(74.5685 0 0 -16.4527 -4215.5776 5794.3945)">
					<stop  offset="0" style="stop-color:#B0C3E1;stop-opacity:0.1"/>
					<stop  offset="1" style="stop-color:#BBC7DC"/>
				</linearGradient>
				<path id="path-29" class="st55" d="M276.7,32.4c-20.6,1.1-37.5-1.6-37.7-6s16.3-8.9,36.9-9.9s37.5,1.6,37.7,6
					S297.3,31.3,276.7,32.4z"/>
			</g>
			<g class="st56">
				<path id="path-29_3_" d="M276.7,32.4c-20.6,1.1-37.5-1.6-37.7-6s16.3-8.9,36.9-9.9s37.5,1.6,37.7,6S297.3,31.3,276.7,32.4z"/>
			</g>
		</g>
	</g>
</g>
<g>
	<path class="st57" d="M259.6,119.1c1.6,2.7,3.5,5.3,5.6,7.7c1.1,1.2,2.2,2.3,3.3,3.4c1.1,1,2.4,1.9,3.7,2.7
		c1.3,0.8,2.7,1.3,4.2,1.6c1.5,0.2,3,0.2,4.5,0.1c1.5-0.1,3-0.5,4.5-0.9c1.4-0.5,2.7-1.2,3.9-2.2c0.3-0.2,0.6-0.5,0.8-0.7
		c0.2-0.2,0.4-0.5,0.6-0.8c0.4-0.5,0.7-1.1,0.9-1.8c0.2-0.5,0.1-1-0.1-1.5c-0.1-0.2-0.3-0.4-0.5-0.6s-0.2-0.1-0.4-0.2
		s-0.2-0.1-0.4-0.2c-0.5-0.2-1.1-0.2-1.6,0c-0.6,0.2-1.1,0.6-1.5,1c-0.5,0.5-0.9,1-1.1,1.6c-0.3,0.6-0.5,1.2-0.5,1.8
		c0,1.5,0.3,2.9,0.8,4.3c0.5,1.4,1.1,2.8,2,4c0.4,0.6,0.9,1.1,1.4,1.6c0.5,0.5,1.1,1,1.7,1.4c1.3,0.9,2.7,1.9,4,2.9
		c0.7,0.6,1.3,1.2,1.9,1.9c0.6,0.8,1.1,1.6,1.5,2.5c0.4,1,0.5,2,0.4,3.1c-0.1,0.2-0.1,0.5-0.1,0.7s-0.1,0.5-0.2,0.7l-0.3,0.7
		c-0.2,0.2-0.3,0.5-0.4,0.7c-0.1,0.1-0.1,0.2-0.2,0.4l-0.2,0.3c-0.1,0.2-0.3,0.4-0.5,0.6c-0.3,0.3-0.7,0.7-1.1,0.9
		c-0.7,0.5-1.5,1-2.3,1.4c-1.5,0.8-3,1.4-4.2,2.1c-0.6,0.3-1.1,0.8-1.6,1.2c-0.2,0.2-0.4,0.4-0.6,0.7c-0.2,0.3-0.4,0.6-0.6,0.9
		c-0.7,1.2-1.1,2.5-1.2,3.9c-0.1,1.4,0,2.8,0.4,4.2c0.2,0.7,0.4,1.4,0.6,2.1c0.1,0.4,0.2,0.7,0.4,1l0.5,1c0.1,0.4,0.4,0.6,0.5,1
		s0.4,0.6,0.6,0.9c0.4,0.6,0.8,1.3,1.3,1.9l0.7,0.9l0.7,0.9l0.4,0.4l0.4,0.4l0.8,0.8c2.2,2.1,4.7,4,7.3,5.6c2.6,1.6,5.4,3,8.3,4.2
		c2.9,1.1,5.9,2,8.9,2.6c1.2,0.3,1.9,1.5,1.6,2.7c-0.3,1.1-1.3,1.8-2.5,1.6h-0.1c-3.3-0.7-6.5-1.7-9.6-2.9c-3.1-1.3-6.1-2.9-8.9-4.7
		c-2.8-1.8-5.5-3.9-7.8-6.3l-0.9-0.9l-0.4-0.4l-0.4-0.5l-0.8-1l-0.8-1c-0.5-0.6-0.9-1.4-1.4-2.1c-0.2-0.4-0.4-0.7-0.6-1.1
		c-0.2-0.4-0.4-0.7-0.6-1.1l-0.6-1.2c-0.2-0.4-0.3-0.8-0.4-1.2c-0.3-0.8-0.5-1.7-0.7-2.5c-0.4-1.8-0.6-3.6-0.4-5.4
		c0.2-1.8,0.8-3.6,1.7-5.2c0.5-0.8,1.1-1.6,1.8-2.2c0.7-0.6,1.5-1.2,2.3-1.6c1.6-0.9,3.1-1.4,4.4-2.1c0.6-0.4,1.3-0.7,1.9-1.1
		c0.3-0.2,0.5-0.4,0.7-0.6c0.1-0.1,0.2-0.2,0.3-0.4l0.1-0.1c0.1-0.1,0.1-0.1,0.1-0.2l0.2-0.4c0.1-0.1,0.1-0.3,0.1-0.4
		s0.1-0.3,0.1-0.4c0.1-0.1,0.1-0.3,0.1-0.4c0.1-0.6,0-1.2-0.1-1.7c-0.5-1.3-1.3-2.4-2.4-3.2c-1.1-1-2.4-1.9-3.7-2.9
		c-0.7-0.5-1.3-1.1-1.9-1.6c-0.6-0.6-1.2-1.3-1.7-2.1c-1-1.4-1.7-3-2.3-4.7c-0.6-1.7-0.8-3.4-0.8-5.2c0.1-1,0.3-1.9,0.8-2.8
		c0.4-0.8,1-1.6,1.7-2.2c0.7-0.7,1.5-1.2,2.4-1.6c1-0.4,2.2-0.3,3.2,0.1c0.2,0.1,0.5,0.2,0.7,0.4l0.6,0.4c0.4,0.4,0.8,0.8,1.1,1.3
		c0.1,0.2,0.2,0.5,0.3,0.8c0.1,0.3,0.1,0.6,0.1,0.9c0,0.5,0,1.1-0.1,1.6c-0.3,0.9-0.7,1.8-1.3,2.5c-0.3,0.3-0.6,0.7-0.9,1
		c-0.4,0.3-0.6,0.6-1,0.9c-1.4,1.1-2.9,1.9-4.5,2.5c-1.6,0.5-3.3,0.9-5,1c-0.9,0.1-1.6,0.1-2.5,0.1c-0.4,0-0.9,0-1.3-0.1
		c-0.2,0-0.4,0-0.6-0.1l-0.6-0.1c-1.7-0.4-3.3-1-4.7-1.9c-1.4-0.9-2.7-1.9-4-3c-1.2-1.1-2.3-2.3-3.4-3.6c-2.1-2.5-4-5.2-5.6-8
		c-0.2-0.3-0.1-0.7,0.2-0.9c0,0,0.1,0,0.1-0.1C259,118.7,259.4,118.8,259.6,119.1L259.6,119.1z"/>
	<polygon class="st58" points="259.6,119.1 260.1,119.8 258.9,120.6 258.4,119.8 	"/>
	<polygon class="st58" points="261,121.3 262,122.7 260.8,123.5 259.8,122.1 	"/>
	<polygon class="st58" points="263.1,124.1 264.1,125.5 262.9,126.4 261.8,125.1 	"/>
	<polygon class="st58" points="265.2,126.8 266.4,128.1 265.2,129.1 264,127.8 	"/>
	<polygon class="st58" points="267.6,129.3 268.9,130.4 267.8,131.6 266.5,130.4 	"/>
	<polygon class="st58" points="270.2,131.4 271.6,132.4 270.6,133.9 269.2,132.9 	"/>
	<polygon class="st58" points="273.1,133.2 274.6,133.9 273.9,135.7 272.2,134.9 	"/>
	<path class="st58" d="M276.2,134.4c0.5,0.1,1,0.2,1.6,0.2l-0.1,1.9c-0.6-0.1-1.2-0.1-1.9-0.3L276.2,134.4z"/>
	<polygon class="st58" points="279.4,134.6 281.1,134.5 281.3,136.5 279.5,136.5 	"/>
	<polygon class="st58" points="282.8,134.3 284.3,133.9 284.9,135.9 283,136.3 	"/>
	<path class="st58" d="M285.9,133.4c0.5-0.2,1-0.5,1.5-0.7l1,1.9c-0.6,0.3-1.1,0.6-1.7,0.8L285.9,133.4z"/>
	<path class="st58" d="M288.8,131.9c0.4-0.3,0.8-0.6,1.2-1l1.5,1.6c-0.5,0.5-1,0.9-1.5,1.2L288.8,131.9z"/>
	<path class="st58" d="M291,129.6c0.3-0.4,0.5-0.8,0.6-1.3l2.1,0.8c-0.2,0.7-0.6,1.3-1,1.8L291,129.6z"/>
	<path class="st58" d="M291.8,127.1c0-0.3-0.2-0.7-0.4-0.9l1.7-1.5c0.5,0.6,0.9,1.4,0.9,2.2L291.8,127.1z"/>
	<path class="st58" d="M290.5,125.6c-0.3-0.1-0.7-0.2-1.1-0.1l-0.4-2.4c0.8-0.2,1.6-0.1,2.4,0.3L290.5,125.6z"/>
	<path class="st58" d="M288.1,125.9c-0.4,0.3-0.8,0.6-1.1,0.9l-1.8-1.7c0.5-0.5,1-1,1.6-1.4L288.1,125.9z"/>
	<path class="st58" d="M286.2,128.1c-0.2,0.4-0.4,0.8-0.5,1.3l-2.4-0.6c0.1-0.7,0.4-1.3,0.8-1.9L286.2,128.1z"/>
	<path class="st58" d="M285.7,130.8c0,0.5,0.1,1.1,0.2,1.6l-2.5,0.5c-0.1-0.6-0.2-1.3-0.2-1.9L285.7,130.8z"/>
	<polygon class="st58" points="286.3,133.9 286.9,135.5 284.4,136.5 283.8,134.7 	"/>
	<polygon class="st58" points="287.6,136.9 288.4,138.3 286.2,139.8 285.2,138.2 	"/>
	<path class="st58" d="M289.4,139.5c0.2,0.2,0.3,0.4,0.6,0.5l0.6,0.5l-1.8,2.2l-0.7-0.6c-0.3-0.2-0.5-0.5-0.7-0.7L289.4,139.5z"/>
	<polygon class="st58" points="291.9,141.6 293.3,142.6 291.7,144.9 290.2,143.8 	"/>
	<polygon class="st58" points="294.8,143.6 296.2,144.9 294.2,147 293,145.9 	"/>
	<path class="st58" d="M297.5,146.3c0.4,0.5,0.8,1.2,1.1,1.8l-2.7,1.2c-0.2-0.4-0.4-0.8-0.7-1.2L297.5,146.3z"/>
	<path class="st58" d="M299.3,150.3c0.1,0.7,0,1.5-0.1,2.2l-2.9-0.7c0.1-0.4,0.1-0.9,0.1-1.3L299.3,150.3z"/>
	<path class="st58" d="M298.3,154.6c-0.4,0.6-0.9,1.2-1.4,1.6l-2.1-2.4c0.3-0.3,0.6-0.6,0.9-1L298.3,154.6z"/>
	<polygon class="st58" points="295.3,157.5 293.6,158.4 292.2,155.6 293.6,154.8 	"/>
	<polygon class="st58" points="292,159.2 290.4,159.9 288.9,157.1 290.6,156.3 	"/>
	<path class="st58" d="M289.1,160.7c-0.4,0.3-0.8,0.6-1.1,0.9l-2.4-2.4c0.5-0.5,1.1-0.9,1.7-1.3L289.1,160.7z"/>
	<path class="st58" d="M287.1,162.7c-0.3,0.4-0.5,0.8-0.7,1.3l-3.1-1.4c0.3-0.6,0.6-1.2,1-1.8L287.1,162.7z"/>
	<path class="st58" d="M286,165.5c-0.1,0.5-0.2,1-0.3,1.5l-3.5-0.4c0.1-0.7,0.2-1.3,0.4-1.9L286,165.5z"/>
	<path class="st58" d="M285.7,168.5c0,0.5,0.1,1,0.1,1.5l-3.5,0.5c-0.1-0.6-0.1-1.3-0.1-1.9L285.7,168.5z"/>
	<polygon class="st58" points="286.2,171.6 286.6,173.1 283.3,174.3 282.7,172.4 	"/>
	<polygon class="st58" points="287.3,174.6 288,176 284.8,177.8 284,176 	"/>
	<polygon class="st58" points="288.9,177.4 289.8,178.8 286.8,181 285.7,179.4 	"/>
	<polygon class="st58" points="290.8,180 291.9,181.3 289.1,183.8 287.9,182.4 	"/>
	<polygon class="st58" points="293,182.5 294.3,183.6 291.7,186.5 290.4,185.2 	"/>
	<polygon class="st58" points="295.5,184.7 296.9,185.7 294.5,188.9 293,187.7 	"/>
	<polygon class="st58" points="298.3,186.7 299.6,187.7 297.4,191 296,189.9 	"/>
	<polygon class="st58" points="301.1,188.5 302.5,189.4 300.5,192.9 299,192 	"/>
	<path class="st58" d="M304,190.2c0.5,0.2,1,0.5,1.5,0.7l-1.8,3.7c-0.6-0.3-1.1-0.6-1.6-0.9L304,190.2z"/>
	<polygon class="st58" points="307.1,191.6 308.6,192.3 307.1,196.1 305.4,195.4 	"/>
	<polygon class="st58" points="310.2,192.8 311.8,193.4 310.5,197.4 308.8,196.8 	"/>
	<polygon class="st58" points="313.4,193.8 315.1,194.3 314,198.5 312.2,198 	"/>
	<polygon class="st58" points="316.7,194.6 317.5,194.8 316.6,199.1 315.8,198.9 	"/>
	<path class="st59" d="M207.9,127.5l3.6,3.6l3.5,3.6c0,0-0.6,7.2-4.6,11.1l-6.9-6.9l-6.8-6.8C200.7,128.1,207.9,127.5,207.9,127.5z"
		/>
	<path class="st60" d="M228.4,97.1L212.8,119c-8.6-4.6-19.6-1.9-26.7,0.8c-1.1,0.4-2.2-0.1-2.7-1.2c-0.3-0.7-0.1-1.5,0.3-2.1
		C205.8,90.1,228.4,97.1,228.4,97.1z"/>
	<path class="st60" d="M262.5,131l-21.9,15.6c4.6,8.6,1.9,19.5-0.8,26.7c-0.4,1.1,0.1,2.2,1.2,2.7c0.7,0.3,1.5,0.1,2.1-0.3
		C269.5,153.7,262.5,131,262.5,131z"/>
	<path class="st61" d="M247.4,155.4c-0.3-3.1,1.1-6,3.6-7.7l12.2-8.1c0.2-2.8-0.1-5.7-0.8-8.4l-21.9,15.6c4.6,8.6,1.9,19.5-0.7,26.7
		c-0.4,1.1,0.2,2.3,1.2,2.7c0.4,0.1,0.8,0.2,1.2,0.1C245.3,170.5,248.2,162.8,247.4,155.4z"/>
	<path class="st61" d="M204.2,112.1c3,0.3,6-1.1,7.7-3.6l8.1-12.2c2.8-0.1,5.7,0.1,8.4,0.8L212.8,119c-8.6-4.6-19.6-1.9-26.7,0.8
		c-1.1,0.4-2.3-0.2-2.7-1.3c-0.1-0.4-0.2-0.8-0.1-1.2C189,114.3,196.7,111.3,204.2,112.1z"/>
	<path class="st22" d="M296.5,102.6c23.2-26.3,13.5-53,13.5-53s-26.7-9.7-53,13.5s-50.4,63-50.4,63l13.5,13.5l13.5,13.5
		C233.4,153,273.3,128.9,296.5,102.6z"/>
	<path class="st62" d="M296.5,102.6c13.5-15.3,15.8-30.8,15.5-41c-1,9.5-4.7,21.4-15.2,33.4c-13.7,15.5-33,30.1-46.6,39.7
		c-9.3,6.5-21.8,5.4-29.8-2.6l-10.7-10.7c-2,3.1-3.1,4.8-3.1,4.8l13.5,13.5l13.5,13.5C233.4,153,273.3,128.9,296.5,102.6z"/>
	<path class="st59" d="M232.1,151.7l-3.6-3.6l-3.5-3.6c0,0-7.2,0.6-11.1,4.6l6.9,6.9l6.9,6.9C231.4,158.9,232.1,151.7,232.1,151.7z"
		/>
	<path class="st63" d="M219.9,148.3c3-1,6.4-0.2,8.6,2.1l0.3,0.3l2.9,2.9c0.2-1.2,0.3-2,0.3-2l-3.6-3.6l-3.5-3.5
		c0,0-7.2,0.6-11.1,4.6l1.6,1.6C216.8,149.6,218.3,148.9,219.9,148.3z"/>
	<path class="st63" d="M211.2,139.6c1-3,0.2-6.4-2.1-8.6l-0.3-0.3l-2.9-2.9c1.3-0.3,2-0.3,2-0.3l3.6,3.6l3.6,3.6
		c0,0-0.6,7.2-4.6,11.1l-1.6-1.6C209.9,142.7,210.7,141.2,211.2,139.6z"/>
	<path class="st60" d="M245.8,117c0.7-1.1,0.3-2.6-0.8-3.2c-0.7-0.4-1.7-0.4-2.4,0c-6.1,3.3-11.7,7.5-16.6,12.4
		c-11.1,11.1-17.1,18-13.9,21.3s10.2-2.8,21.3-13.9C238.3,128.6,242.5,123.1,245.8,117z"/>
	<path class="st61" d="M244.4,119.4c-2.7,3.5-5.6,6.9-8.7,10c-11.1,11.1-17.9,17.2-20.4,14.8s3.6-9.3,14.8-20.4
		c3.1-3.1,6.5-6,10-8.7c-5.1,3.1-9.8,6.8-14.1,11c-11.1,11.1-17.1,18-13.9,21.3s10.2-2.8,21.3-13.9
		C237.7,129.2,241.3,124.5,244.4,119.4z"/>
	<circle class="st64" cx="273.2" cy="86.3" r="19.6"/>
	<circle class="st59" cx="273.2" cy="86.3" r="13.1"/>
	<circle class="st65" cx="284.9" cy="97.9" r="1.5"/>
	<path class="st65" d="M273.2,101.3c0.8,0,1.5,0.7,1.5,1.5c0,0.8-0.7,1.5-1.5,1.5c-0.8,0-1.5-0.7-1.5-1.5c0,0,0,0,0,0
		C271.8,102,272.4,101.3,273.2,101.3z"/>
	<circle class="st65" cx="261.6" cy="97.9" r="1.5"/>
	<path class="st65" d="M258.3,86.3c0,0.8-0.7,1.5-1.5,1.5s-1.5-0.7-1.5-1.5c0-0.8,0.7-1.5,1.5-1.5C257.6,84.7,258.3,85.4,258.3,86.3
		C258.3,86.2,258.3,86.2,258.3,86.3z"/>
	<circle class="st65" cx="261.6" cy="74.6" r="1.5"/>
	<path class="st65" d="M273.2,71.3c-0.8,0-1.5-0.7-1.5-1.5c0-0.8,0.7-1.5,1.5-1.5c0.8,0,1.5,0.7,1.5,1.5c0,0,0,0,0,0
		C274.7,70.6,274.1,71.3,273.2,71.3C273.3,71.3,273.2,71.3,273.2,71.3z"/>
	<circle class="st65" cx="284.9" cy="74.6" r="1.5"/>
	<path class="st65" d="M288.3,86.3c0-0.8,0.7-1.5,1.5-1.5c0.8,0,1.5,0.7,1.5,1.5c0,0.8-0.7,1.5-1.5,1.5l0,0
		C289,87.7,288.3,87.1,288.3,86.3z"/>
	<path class="st60" d="M310,49.6c0,0-9.1-3.3-21.9-1.4c0.9,3.6,3.1,10.2,8.2,15.1l0,0c5,5,11.6,7.3,15.1,8.2
		C313.3,58.7,310,49.6,310,49.6z"/>
	<path class="st66" d="M191.7,184.9c0,0,17.6-0.8,26.4-9.6c5-5,5-10.3,3.9-13.9c-0.9-3.3-3.5-5.9-6.9-6.9c-5-1.5-10.4,0.1-13.9,3.9
		C192.4,167.3,191.7,184.9,191.7,184.9z"/>
	<path class="st57" d="M199.7,176.8c0,0,12.5-0.6,18.8-6.9c2.7-2.5,3.8-6.3,2.8-9.9c-0.6-2.4-2.5-4.2-4.9-4.9
		c-3.6-1.1-7.4,0-9.9,2.8C200.2,164.3,199.7,176.8,199.7,176.8z"/>
	<path class="st67" d="M207.3,169.2c0,0,7.7-0.3,11.6-4.2c1.7-1.5,2.3-3.9,1.7-6.1c-0.4-1.5-1.5-2.6-3-3c-2.2-0.6-4.5,0.1-6,1.7
		C207.7,161.5,207.3,169.2,207.3,169.2z"/>
	<path class="st66" d="M174.6,167.9c0,0,17.6-0.7,26.4-9.6c5-5,5-10.3,3.9-13.9c-0.9-3.3-3.5-5.9-6.9-6.9c-3.6-1-8.9-1.1-13.9,3.9
		C175.4,150.3,174.6,167.9,174.6,167.9z"/>
	<path class="st57" d="M182.7,159.9c0,0,12.5-0.5,18.8-6.9c2.7-2.5,3.8-6.3,2.8-9.9c-0.7-2.4-2.5-4.2-4.9-4.9
		c-3.6-1-7.4,0.1-9.9,2.8C183.2,147.4,182.7,159.9,182.7,159.9z"/>
	<path class="st67" d="M190.4,152.1c0,0,7.7-0.3,11.6-4.2c1.7-1.5,2.3-3.8,1.7-6c-0.4-1.5-1.5-2.6-3-3c-2.2-0.6-4.5,0-6.1,1.7
		C190.7,144.5,190.4,152.1,190.4,152.1z"/>
	<path class="st68" d="M260.2,85.3l25.8-1.9c-0.5-2.3-1.6-4.3-3.2-6l-20.3,1.4C261.1,80.7,260.3,83,260.2,85.3z"/>
	<path class="st68" d="M262.2,93.4l22.9-1.7c0.5-1.2,0.9-2.4,1.1-3.6l-25.6,1.9C261,91.1,261.5,92.3,262.2,93.4z"/>
	<path class="st59" d="M289.1,177c-0.8-1.6-1.8-3.1-2.9-4.5c-1.3-1.4-2.6,1.1-1.9,2.3c-0.9-0.9-1.9-1.6-3.1-2.1
		c-4.7-1.4-7.8,5.9-1.9,8.7c4.5,1.9,6.5,2.6,6.5,2.6L289.1,177z"/>
	<path class="st63" d="M288.1,179c-0.2-1.3-0.4-2.3-0.4-2.3s-3.4,4.7-4.2,4.5c-3.8-0.6-6.7-3.5-7.6-4.4c0,2.1,1.3,3.9,3.2,4.6
		c4.5,1.9,6.5,2.6,6.5,2.6L288.1,179z"/>
	<path class="st59" d="M334.8,188.7c0.3,1.8,0.8,3.6,1.5,5.3c0.8,1.7,2.8-0.2,2.6-1.5c0.5,1.1,1.2,2,2,2.8c4.1,2.8,9.3-3.2,4.6-7.6
		c-3.7-3.3-5.3-4.6-5.3-4.6L334.8,188.7z"/>
	<path class="st63" d="M336.3,194c0.7,1.5,2.3,0.2,2.6-1c-0.3,0.4-0.9,0.5-1.2,0.2c-0.1-0.1-0.2-0.1-0.2-0.2
		c-0.5-0.6-0.6-4.8-0.6-4.8c-0.1-0.2-1,0-1.8,0.3l-0.2,0.3C335.1,190.5,335.6,192.3,336.3,194z"/>
	<path class="st59" d="M288,159.6c0,0-3.5-0.4-4.5,1.9s1.9,12.7,4.5,12.9c1.3-0.1,2.6-0.4,3.7-1L288,159.6z"/>
	<path class="st59" d="M324,150.1c0,0,2.9-2.1,4.8-0.6s4.6,12,2.5,13.4c-1.2,0.6-2.4,0.9-3.7,1L324,150.1z"/>
	<path class="st63" d="M329.8,160.3c-0.1-4.3-2.9-9.3-4-11.1c-0.6,0.2-1.2,0.5-1.7,0.9l3.7,13.9c1.3-0.1,2.6-0.4,3.7-1
		c0.6-0.6,0.8-1.5,0.7-2.3C331,161,329.8,161,329.8,160.3z"/>
	<path class="st63" d="M288.1,171.3c-2.1-3.8-2.1-9.4-2-11.6c0.6-0.1,1.3-0.1,1.9-0.1l3.7,13.9c-1.2,0.6-2.4,0.9-3.7,1
		c-0.6-0.1-1.2-0.6-1.8-1.7C287.4,172.5,288.4,172,288.1,171.3z"/>
	<path class="st62" d="M306.9,160.4L306.9,160.4c-10.4,2.7-16.5,13.3-13.8,23.7c0,0,0,0.1,0,0.1l4.5,17c1.1,4.1,5.3,6.6,9.4,5.6
		c0,0,0.1,0,0.1,0l22.5-6c4.1-1.1,6.6-5.3,5.6-9.5c0,0,0-0.1,0-0.1l-4.5-17C327.8,163.8,317.2,157.7,306.9,160.4z"/>
	<path class="st69" d="M330.7,174.6c-6,5-8.6,13-6.5,20.6l1.7,6.5l3.7-1c4.1-1.1,6.6-5.3,5.5-9.5c0,0,0-0.1,0-0.1L330.7,174.6
		L330.7,174.6z"/>
	<path class="st69" d="M293.2,184.6L293.2,184.6l4.4,16.6c1.1,4.1,5.3,6.6,9.5,5.6c0,0,0.1,0,0.1,0l3.7-1l-1.8-6.5
		C307,191.7,300.9,185.9,293.2,184.6z"/>
	<path class="st70" d="M321.4,162.2c2.5,2.4,4.2,5.5,5.2,8.8l4.5,17c1.1,4.2-1.4,8.4-5.5,9.6l-22.5,6c-1.4,0.4-3,0.3-4.4-0.1
		c1.9,2.8,5.2,4,8.5,3.2l22.5-6c4.1-1.1,6.6-5.3,5.5-9.5c0,0,0-0.1,0-0.1l-4.5-17C329.2,169.1,325.9,164.8,321.4,162.2z"/>
	<path class="st22" d="M334.8,188.7l5.4-5.6c-6.8-6.5-12.9-8-17.1-7.9c-0.1-0.3-0.1-0.5-0.1-0.5s-3-3.2-11.9-0.9
		c-8.4,2.2-9.8,6.2-9.8,6.6c-4.2-0.4-8.3-1.6-12.1-3.4l-3.3,7c5.3,2.6,11.1,4.1,17,4.2c0.6,3,1.4,6.3,2,8.7c0.5,2,1.5,3.9,2.9,5.4
		c-1.3,4.6-2,9.4-2,14.1h8.8c0.1-4,0.8-7.9,1.9-11.7c1-0.1,1.9-0.3,2.9-0.6c1-0.2,2-0.6,3-1.1c2.8,2.8,5.3,5.9,7.5,9.3l7.6-4.3
		c-2.5-4.2-5.5-8.1-9-11.6c0.4-1.9,0.4-3.9-0.2-5.8c-0.6-2.2-1.4-5-2.2-7.6C329.3,184.3,332.4,186.2,334.8,188.7z"/>
	<path class="st22" d="M327,153.3c-6.9-16.4-24.2-11-24.2-11s-17.7,3.9-15.6,21.5s18.2,16.6,25.2,14.7S333.8,169.6,327,153.3z"/>
	<path class="st62" d="M327,153.3c-1.3-3.5-3.7-6.5-6.8-8.6c2.3,2.1,4.1,4.6,5.2,7.5c6.9,16.4-7.6,23.4-14.6,25.3
		c-4.5,1.1-12.5,2-18.4-2c5.9,5.3,15.1,4.4,19.9,3.2C319.4,176.7,333.8,169.6,327,153.3z"/>
	<path class="st59" d="M317.7,198.9c-4.1,1.2-8.5,1.6-12.7,1.1c-1.1,0-2-0.9-2-2c0-1.1,0.9-2,2-2c0.2,0,0.4,0,0.6,0.1
		c3.7,0.4,7.4,0,11-1c6.6-1.7,9.8-4.4,9.8-4.5c0.8-0.7,1.9-0.6,2.6,0.1c0,0,0.1,0.1,0.1,0.1c0.7,0.8,0.6,2-0.1,2.7c0,0,0,0,0,0
		C329,193.8,325.3,197,317.7,198.9z"/>
	<path class="st63" d="M328.9,192.6c-0.1,0.1-3.8,3.3-11.4,5.3c-4.1,1.2-8.4,1.6-12.7,1.1c-0.6-0.1-1-0.4-1.3-0.9
		c0,0.9,0.7,1.7,1.6,1.9c0.2,0.1,5.2,0.9,12.7-1.1s11.3-5.2,11.4-5.3c0.7-0.6,0.9-1.7,0.4-2.4C329.5,191.7,329.3,192.2,328.9,192.6z
		"/>
	<path class="st59" d="M313,181.1c-3.9,1.1-8,1.3-12.1,0.6c-0.7-0.2-1.1-1-0.9-1.7c0.2-0.6,0.8-1,1.5-0.9c7.3,1.1,14.8-0.8,20.6-5.4
		c0.5-0.4,1.3-0.4,1.8,0.2c0,0,0,0,0,0c0.4,0.5,0.4,1.3-0.2,1.8c0,0,0,0,0,0C320.6,178.2,316.9,180.1,313,181.1z"/>
	<path class="st63" d="M301,180.5c7.9,1,15.8-1.1,22.2-5.9c0.3-0.2,0.6-0.3,1-0.3l-0.2-0.4c-0.4-0.6-1.2-0.7-1.8-0.2c0,0,0,0,0,0
		c-5.8,4.6-13.3,6.6-20.6,5.4c-0.7-0.1-1.4,0.3-1.6,1c-0.1,0.2-0.1,0.4,0,0.6C300.3,180.5,300.7,180.4,301,180.5z"/>
	<path class="st71" d="M317.2,180.8l-2.5,0.9c-0.9,0.4-1.9,0.6-2.9,0.8L309,183c-0.7,0.1-1.1,0.8-1,1.4c0,0,0,0.1,0,0.1l1.1,4.1
		c0.2,0.6,0.8,1,1.4,0.9l2.9-0.4c1-0.1,1.9-0.4,2.9-0.8l2.8-1.1c0.6-0.2,0.9-0.8,0.7-1.4l-1.1-4.1c-0.1-0.6-0.7-1-1.3-0.8
		C317.3,180.8,317.3,180.8,317.2,180.8z"/>
	<path class="st72" d="M311,184.7c0.1,0.5-0.2,1-0.6,1.1c0,0-0.1,0-0.1,0c-0.5,0.1-1-0.1-1.1-0.6c0,0,0-0.1,0-0.1
		c-0.1-0.5,0.2-1,0.7-1.1c0,0,0,0,0.1,0C310.4,183.9,310.9,184.2,311,184.7z"/>
	<path class="st72" d="M311.8,187.3c0.1,0.5-0.2,1.1-0.7,1.2c-0.5,0.1-1.1-0.2-1.2-0.7c-0.1-0.5,0.2-1.1,0.7-1.2c0,0,0.1,0,0.1,0
		C311.1,186.5,311.6,186.8,311.8,187.3C311.8,187.3,311.8,187.3,311.8,187.3z"/>
	<path class="st59" d="M314.8,184.7c-0.7,0.2-1.5,0.4-2.3,0.4c-0.3,0-0.6-0.2-0.6-0.5c0-0.3,0.2-0.6,0.5-0.6c1.7-0.2,3.4-0.7,5-1.5
		c0.3-0.2,0.6-0.1,0.8,0.2c0,0,0,0,0,0c0.2,0.3,0.1,0.6-0.2,0.8C316.9,184,315.9,184.4,314.8,184.7z"/>
	<path class="st59" d="M315.4,187.1c-0.8,0.2-1.5,0.4-2.3,0.4c-0.3,0-0.6-0.2-0.6-0.5c0-0.3,0.2-0.6,0.5-0.6c1.7-0.2,3.4-0.7,5-1.5
		c0.3-0.1,0.6,0,0.8,0.3c0.1,0.3,0,0.6-0.2,0.7C317.5,186.4,316.4,186.8,315.4,187.1z"/>
	<path class="st59" d="M322.5,189.2l-1.1-0.9c-0.2-0.2-0.5-0.2-0.8-0.1l-1.4,0.5c-0.3,0.1-0.4,0.3-0.5,0.6l-0.2,1.4
		c-0.1,0.3,0,0.6,0.3,0.7l1.1,0.9c0.2,0.2,0.5,0.2,0.8,0.1l1.4-0.5c0.3-0.1,0.4-0.3,0.5-0.6l0.2-1.4
		C322.8,189.6,322.7,189.3,322.5,189.2z"/>
	<path class="st59" d="M308.8,192.8l0.6-1.4c0.1-0.3,0.3-0.4,0.6-0.5l1.4-0.2c0.3-0.1,0.6,0.1,0.7,0.3l0.9,1.1
		c0.2,0.2,0.2,0.5,0.1,0.8l-0.6,1.4c-0.1,0.3-0.3,0.4-0.6,0.5l-1.4,0.2c-0.3,0.1-0.6-0.1-0.7-0.3l-0.9-1.1
		C308.7,193.4,308.7,193.1,308.8,192.8z"/>
	<path class="st64" d="M324.3,156.6c-5.2-11.9-19.7-7.4-19.7-7.4s-14.8,3.4-13.5,16.2s14.6,11.7,20.5,10.1S329.6,168.4,324.3,156.6z
		"/>
	<path class="st73" d="M324.3,156.6c-1.1-2.7-3.1-5-5.7-6.4c1.3,1.3,2.3,2.8,3,4.4c5.2,11.9-6.9,17.4-12.8,19
		c-3.6,0.9-9.9,1.7-14.6-0.7c4.7,4.7,13,3.7,17.3,2.6C317.4,174,329.6,168.4,324.3,156.6z"/>
	<path class="st68" d="M304.6,149.2c-0.7,0.1-1.3,0.3-1.9,0.6c-0.7,8.3-3.5,16.4-8.1,23.4c1.7,1.5,3.7,2.5,5.9,2.9
		c5.2-8.3,8.3-17.8,8.9-27.6C307.7,148.5,306.1,148.8,304.6,149.2z"/>
	<path class="st68" d="M314.2,148.7c-0.4,5.1-2,17.1-10,27.8c1.4,0,2.8-0.1,4.2-0.3c5.3-7.9,8.4-17.1,9-26.6
		C316.4,149.2,315.3,148.9,314.2,148.7z"/>
	<path class="st64" d="M327.1,198.7c-1.7,0.3-3.5-0.1-4.8-1.2c-2.1-1.8-3.1-4.6-2.6-7.3c0.1-0.5,0.6-0.9,1.1-0.8
		c0.5,0.1,0.9,0.6,0.8,1.1c-0.3,2.1,0.4,4.1,1.9,5.5c1,0.8,2.7,1.3,3.6,0.6c0.3-0.2,0.6-0.5,0.6-0.9c0.1-0.5-0.1-1.1-0.4-1.5
		c-0.3-0.3-0.6-0.6-1-0.9c-1-0.5-1.7-1.4-1.9-2.5c-0.2-0.8,0-1.6,0.5-2.3c0.5-0.7,1.3-1.2,2.2-1.4c0.5,0.1,0.9,0.6,0.9,1.1
		c0,0.4-0.3,0.7-0.7,0.8c-0.3,0-0.7,0.2-0.9,0.5c-0.2,0.2-0.2,0.5-0.1,0.8c0.1,0.5,0.5,0.8,1.2,1.3c0.5,0.3,1,0.7,1.4,1.2
		c0.6,0.9,0.9,1.9,0.8,3c-0.1,0.9-0.7,1.7-1.4,2.2C327.9,198.4,327.5,198.6,327.1,198.7z"/>
	<path class="st64" d="M309.4,203.4c-0.4,0.1-0.8,0.1-1.1,0.1c-0.9-0.1-1.8-0.5-2.4-1.2c-0.7-0.8-1-1.9-0.9-3
		c0.1-0.6,0.3-1.2,0.6-1.7c0.4-0.8,0.6-1.3,0.4-1.7c-0.1-0.3-0.3-0.5-0.6-0.6c-0.3-0.1-0.7-0.1-1,0c-0.5,0.3-1.1,0.2-1.4-0.3
		c-0.3-0.5-0.2-1.1,0.3-1.4c0.1-0.1,0.2-0.1,0.3-0.1c0.8-0.3,1.8-0.3,2.6,0.1c0.8,0.4,1.3,1,1.6,1.8c0.3,1.1,0.1,2.2-0.5,3.2
		c-0.2,0.4-0.3,0.8-0.4,1.2c-0.1,0.5,0.1,1.1,0.4,1.5c0.2,0.3,0.6,0.5,1,0.5c1.1,0.1,2.3-1.1,2.8-2.4c0.7-2,0.3-4.2-1.1-5.8
		c-0.4-0.3-0.5-1-0.2-1.4c0.3-0.4,1-0.5,1.4-0.2c0.1,0.1,0.2,0.2,0.3,0.4c1.7,2.2,2.2,5.1,1.3,7.7C312.3,201.7,311,203,309.4,203.4z
		"/>
	<path class="st62" d="M335.8,185.7c0,0-5.5-5.6-11.3-5.8l1.2,3.3c2.4,0.6,5.5,2,9,5.5l0.9-0.9L335.8,185.7z"/>
	<path class="st74" d="M335.1,190c-0.4,0.1-0.9,0-1.2-0.3c-0.5-0.5-0.5-1.3-0.1-1.9l5.4-5.6c0.5-0.5,1.3-0.5,1.9-0.1
		c0.5,0.5,0.5,1.3,0.1,1.9l-5.4,5.6C335.6,189.8,335.3,189.9,335.1,190z"/>
	<path class="st63" d="M347.2,192c-4.2,5.2-8.4,0.4-8.4,0.4c0.5,1.1,1.1,2,2,2.8c1.9,1.2,4.5,0.7,5.8-1.3
		C347,193.4,347.2,192.7,347.2,192z"/>
	<path class="st59" d="M335,179c-2.4-1.6-5.1-2.8-8-3.4c0,1.1,0.4,3.4,2.4,4.4C331.3,180.9,333.5,180.5,335,179z"/>
	<path class="st59" d="M290.7,186c2.8,1,5.7,1.7,8.7,2c-0.1-0.9-0.7-3.7-3.2-4.2S291.5,184.2,290.7,186z"/>
	<path class="st62" d="M302.4,185.1c0,0-9.1-0.8-14.7-3.5c-0.2-0.1-0.5-0.2-0.7-0.3l-1.3,2.7c5.3,2.6,11.1,4.1,17,4.2
		C302.8,188.2,302.5,187.2,302.4,185.1z"/>
	<path class="st74" d="M286.1,185.2c-0.3,0.1-0.6,0.1-0.9-0.1c-0.7-0.3-0.9-1.1-0.6-1.7l3.3-7c0.3-0.6,1.1-0.9,1.7-0.6
		c0.6,0.3,0.9,1.1,0.6,1.7l-3.3,7C286.8,184.9,286.5,185.1,286.1,185.2z"/>
	<path class="st62" d="M328.3,207.5c-2-1.9-3.9-3.9-5.7-6c-0.3-0.5-0.7-0.2-1.4,0.4s-4.2,1.9-5.2,1.4s-1.1-0.2-1.1,0
		s-2.1,8.8-2.1,8.8s0.8,0,2-0.1c0.3-2.5,0.8-4.9,1.5-7.3c1-0.1,1.9-0.3,2.9-0.6c1-0.3,2-0.6,3-1.1c1.9,1.9,3.6,3.9,5.2,6
		C328,208.3,328.5,207.6,328.3,207.5z"/>
	<path class="st59" d="M305.9,210.9c-0.1,0.5-0.3,4.4-0.3,4.4s-4.7-2.7-8.5-0.4s-3.1,7.6-3.1,7.6l20.3,2.1l0.6-13L305.9,210.9z"/>
	<path class="st59" d="M334.2,203.3c0.3,0.4,2.4,3.7,2.4,3.7s2.7-4.7,7.3-4.6s6.4,5.1,6.4,5.1l-16.5,11.9l-7-11L334.2,203.3z"/>
	<path class="st64" d="M333.7,219.3l16.5-11.9c-0.3-0.7-0.7-1.5-1.2-2.1l-16.5,12L333.7,219.3z"/>
	<path class="st64" d="M294,222.3l20.3,2.2l0.1-2.5l-20.2-2.6C293.9,220.3,293.9,221.3,294,222.3z"/>
	<path class="st74" d="M327.1,209.5c-0.5,0.1-1.1-0.1-1.4-0.6c-0.4-0.6-0.2-1.4,0.4-1.8l7.5-5c0.6-0.4,1.4-0.2,1.8,0.4
		c0.4,0.6,0.2,1.4-0.4,1.8l-7.5,5C327.3,209.4,327.2,209.5,327.1,209.5z"/>
	<path class="st75" d="M335.3,203.4l-7.5,5c-0.1,0.1-0.2,0.1-0.4,0.1c-0.6,0.1-1.1-0.1-1.4-0.6c-0.1-0.2-0.2-0.5-0.2-0.7
		c-0.4,0.4-0.5,1.1-0.2,1.6c0.3,0.5,0.9,0.7,1.4,0.6c0.1,0,0.3-0.1,0.4-0.1l7.5-5c0.4-0.2,0.6-0.6,0.6-1.1
		C335.5,203.4,335.4,203.4,335.3,203.4z"/>
	<path class="st74" d="M315.1,212.6c-0.1,0-0.3,0.1-0.4,0.1l-9-0.6c-0.7-0.1-1.2-0.7-1.1-1.4c0.1-0.6,0.6-1.1,1.3-1.1l9,0.6
		c0.7,0.1,1.2,0.7,1.2,1.4C316.1,212,315.7,212.5,315.1,212.6z"/>
	<path class="st75" d="M315.4,210.2c0.1,0.2,0.2,0.5,0.1,0.7c0,0.5-0.4,1-0.9,1.1c-0.1,0-0.3,0.1-0.4,0.1l-9-0.6
		c-0.2,0-0.3-0.1-0.4-0.1c0.2,0.4,0.6,0.6,1.1,0.6l9,0.6c0.2,0,0.3,0,0.4-0.1c0.5-0.1,0.9-0.6,0.9-1.1
		C316.2,210.9,315.8,210.4,315.4,210.2z"/>
	<path class="st64" d="M337.3,214.3l-2.2-1.8c-1.1-0.8-2.5-1-3.7-0.4l-1.6,0.9l0.4,0.6l1.6-0.9c1-0.5,2.1-0.4,3,0.3l2.1,1.7l1.4,1.3
		l0.5-0.4L337.3,214.3z"/>
	<path class="st64" d="M312.9,217c-1.3,0.1-2.5,0.9-3,2.1l-1,2.6l-0.6,2l0.6,0.1l0.6-1.9l1-2.6c0.4-1,1.3-1.7,2.4-1.8l1.6-0.1v-0.6
		L312.9,217z"/>
</g>
</svg>
