<svg xmlns="http://www.w3.org/2000/svg" width="48" height="48" viewBox="0 0 48 48">
    <g fill="none" fill-rule="evenodd">
        <path fill="#42C25F" fill-opacity=".1" d="M9 3h23.038L42 13.332V42a3 3 0 0 1-3 3H9a3 3 0 0 1-3-3V6a3 3 0 0 1 3-3z"/>
        <path fill="#11BA5D" d="M19.202 37h-2.231l-1.392-2.231L14.202 37H12.02l2.368-3.652-2.227-3.487H14.3l1.289 2.207 1.24-2.207h2.202l-2.26 3.638L19.202 37zm.8 0v-7.139h1.93v5.581h2.749V37h-4.678zm10.49-2.168c0 .443-.113.836-.338 1.18-.224.343-.548.61-.971.8-.424.19-.92.286-1.49.286-.475 0-.874-.034-1.196-.1a4.441 4.441 0 0 1-1.006-.35V34.93c.368.188.75.336 1.148.442.397.105.761.158 1.093.158.287 0 .497-.05.63-.149.134-.099.2-.227.2-.383a.422.422 0 0 0-.08-.256.938.938 0 0 0-.259-.222c-.119-.075-.435-.228-.95-.46-.465-.211-.814-.416-1.047-.615a1.889 1.889 0 0 1-.518-.683 2.269 2.269 0 0 1-.168-.913c0-.658.24-1.17.718-1.538.478-.368 1.136-.552 1.972-.552.74 0 1.493.17 2.261.512l-.59 1.49c-.668-.306-1.244-.46-1.73-.46-.25 0-.432.045-.546.133a.399.399 0 0 0-.17.327c0 .14.072.265.216.376.145.11.538.312 1.18.605.615.277 1.042.574 1.281.891.24.318.36.717.36 1.199z"/>
    </g>
</svg>
